<?xml version="1.0" encoding="utf-8" ?>
<svg xmlns="http://www.w3.org/2000/svg" xmlns:xlink="http://www.w3.org/1999/xlink" width="512" height="512">
	<path fill="#F6F7EB" transform="scale(0.666667 0.666667)" d="M-0 -0L768 0L768 768L-0 768L0 -0Z"/>
	<path fill="#73CBD7" transform="scale(0.666667 0.666667)" d="M589.171 338.989L589.571 339.134C591.602 339.704 594.143 338.759 595.507 340.875C596.275 342.067 596.459 344.13 596.741 345.526C597.354 348.564 599.313 353.814 598.485 356.73C597.95 358.616 595.454 359.945 593.771 360.586C591.178 361.574 587.971 362.529 585.188 362.117C581.783 359.489 578.43 351.922 577.92 347.625C577.847 347.016 577.822 346.138 578.246 345.68C579.577 344.242 581.273 343.725 582.665 342.45C584.053 342.547 585.65 341.911 586.875 341.313C588.263 340.635 588.708 340.449 589.171 338.989Z"/>
	<path fill="#73CBD7" transform="scale(0.666667 0.666667)" d="M200.813 342.954C202.542 343.938 203.936 345.088 205.42 346.391C204.957 349.926 203.295 353.434 201.761 356.625C200.889 358.439 199.417 360.575 197.438 361.285C194.598 362.303 190.696 360.901 188.131 359.601C186.503 358.776 183.385 357.066 183.088 355.123C182.913 353.977 183.44 352.512 183.707 351.375C184.426 348.308 185.298 342.371 187.275 340.034C188.002 339.175 188.792 338.616 189.938 338.543C191.603 338.437 193 338.454 194.493 339.291C195.267 340.823 199.166 342.223 200.813 342.954Z"/>
	<path fill="#393E41" transform="scale(0.666667 0.666667)" d="M582.665 342.45C580.624 338.238 579.112 333.638 577.595 329.208L570.586 306.131C568.82 299.497 566.89 292.776 565.815 285.992C564.025 285.421 562.217 284.702 560.721 283.541C554.36 278.607 553.177 271.639 551.245 264.375C550.689 262.282 549.714 260.108 549.499 257.951C549.282 255.784 549.956 253.785 551.448 252.213C553.066 250.509 554.912 250.174 557.17 250.126C561.294 250.038 564.404 251.886 567.276 254.68C572.267 259.538 577.628 268.16 577.678 275.273C577.705 279.129 576.15 281.854 573.507 284.521L573.112 284.915L589.171 338.989C588.708 340.449 588.263 340.635 586.875 341.313C585.65 341.911 584.053 342.547 582.665 342.45Z"/>
	<path fill="#F6F7EB" transform="scale(0.666667 0.666667)" d="M557.433 258.562L558.75 258.408C559.698 258.411 560.412 259.067 561.037 259.703C563.724 262.435 565.881 266.609 567.623 269.99C568.574 271.836 569.625 273.685 569.584 275.812L568.039 277.286L566.062 277.669C565.669 277.416 565.336 277.205 565.031 276.842C562.187 273.459 559.848 268.062 557.91 264.065C557.237 262.675 556.173 260.876 556.38 259.312L557.433 258.562Z"/>
	<path fill="#393E41" transform="scale(0.666667 0.666667)" d="M194.493 339.291L202.177 314.058C204.85 304.585 207.478 295.159 209.05 285.43L208.522 285.124C205.287 283.232 202.441 280.456 201.552 276.69C200.409 271.85 203.768 265.109 206.377 261.154C209.439 256.513 213.626 251.323 219.387 250.219C221.885 249.74 224.658 249.986 226.793 251.479C227.929 252.273 229.257 253.568 229.489 255C229.732 256.509 229.622 257.9 229.066 259.32C227.903 262.295 227.791 265.566 227.187 268.688C226.091 274.355 222.933 282.103 217.688 285.017L217.061 285.373L216.598 285.628C215.203 299.894 210.746 314.48 206.527 328.151C205.038 332.974 203.752 338.803 200.813 342.954C199.166 342.223 195.267 340.823 194.493 339.291Z"/>
	<path fill="#F6F7EB" transform="scale(0.666667 0.666667)" d="M219.226 258.938C220.078 258.784 220.584 258.84 221.438 258.917L221.929 259.688C221.007 264.386 218.612 269.382 216.109 273.463C214.944 275.361 214.293 276.269 212.062 276.819C210.727 276.727 210.478 276.555 209.394 275.859C209.159 275.026 209.224 274.489 209.484 273.686C211.072 268.772 214.478 261.441 219.226 258.938Z"/>
	<path fill="#E94F37" transform="scale(0.666667 0.666667)" d="M237.284 187.632C238.717 187.695 239.636 187.809 240.929 188.443C243.642 189.775 248.783 189.089 251.812 189.087C259.225 189.081 266.976 188.634 274.345 189.362L273.863 202.191L273.573 222.081C273.5 226.959 272.843 232.771 273.702 237.575C274.003 239.262 274.73 240.998 275.3 242.617L275.845 247.434L275.644 262.878L275.103 262.879C273.165 263.642 239.281 263.473 237.736 262.903C238.659 255.154 237.495 246.51 237.448 238.647L237.386 210.722C237.364 206.113 237.727 201.137 237.042 196.579C238.825 196.565 243.316 197.004 244.688 196.104C244.772 195.653 244.813 195.519 244.816 195C244.822 193.766 244.818 192.793 243.938 191.942C241.924 191.493 240.177 191.159 238.099 191.241L237.427 190.676L237.284 187.632Z"/>
	<path fill="#53BBCB" transform="scale(0.666667 0.666667)" d="M275.845 247.434C277.23 246.899 278.652 247.11 280.11 247.145L288.092 247.347C294.421 247.489 300.857 247.228 307.163 247.743L307.172 263.49L306.959 264.674L307.363 309.913L307.268 315.577L274.397 315.512C275.021 312.87 274.904 309.764 275.049 307.039L274.613 306.239C271.809 305.674 268.447 306 265.552 305.99L248.25 306.061C246.324 306.129 244.16 306.713 242.269 306.245C239.688 305.606 238.197 304.058 236.854 301.884C236.741 300.92 236.633 299.969 236.331 299.043C235.991 298.003 235.67 297.013 235.504 295.925C234.931 292.154 233.8 264.547 234.884 263.062L237.736 262.903C239.281 263.473 273.165 263.642 275.103 262.879L275.644 262.878L275.845 247.434Z"/>
	<path fill="#73CBD7" transform="scale(0.666667 0.666667)" d="M275.845 247.434C277.23 246.899 278.652 247.11 280.11 247.145L288.092 247.347C294.421 247.489 300.857 247.228 307.163 247.743L307.172 263.49L306.959 264.674C305.933 266.135 306.618 273.063 306.619 275.199L276.146 274.958L276.182 267.486C276.181 266.283 276.37 264.811 275.953 263.671L275.749 263.263L275.644 262.878L275.845 247.434Z"/>
	<path fill="#393E41" transform="scale(0.666667 0.666667)" d="M237.736 262.903C239.281 263.473 273.165 263.642 275.103 262.879L275.644 262.878L275.749 263.263L275.427 295.264C275.366 298.832 275.833 303.616 275.049 307.039L274.613 306.239C271.809 305.674 268.447 306 265.552 305.99L248.25 306.061C246.324 306.129 244.16 306.713 242.269 306.245C239.688 305.606 238.197 304.058 236.854 301.884C236.741 300.92 236.633 299.969 236.331 299.043C235.991 298.003 235.67 297.013 235.504 295.925C234.931 292.154 233.8 264.547 234.884 263.062L237.736 262.903Z"/>
	<path fill="#73CBD7" transform="scale(0.666667 0.666667)" d="M326.47 693.938L360.158 693.715L415.289 693.725L472.125 694.328C496.925 694.783 521.303 695.303 545.695 700.451C515.505 707.692 484.35 708.845 453.469 710.243L374.684 710.765L312.75 709.55C286.389 708.59 259.846 707.24 234.292 700.168C264.587 694.519 295.766 694.618 326.47 693.938Z"/>
	<path fill="#393E41" transform="scale(0.666667 0.666667)" d="M310.325 123.398C310.267 118.112 309.816 112.103 310.855 106.901C312.091 100.713 315.801 95.0006 320.14 90.5437C336.434 73.8063 360.645 65.1067 383.79 64.8352C402.239 64.6189 417.974 69.9354 432.942 80.5027C436.944 83.3284 440.892 86.2811 444.385 89.7281C449.029 94.3105 452.77 99.6547 454.123 106.152C455.042 110.564 454.879 115.602 454.891 120.096L454.887 123.777L454.301 124.008C450.967 124.971 445.493 124.419 441.958 124.44L413.783 124.492L352.288 124.488L316.893 124.345C314.874 124.288 311.922 124.575 310.325 123.398Z"/>
	<path fill="#F6F7EB" transform="scale(0.666667 0.666667)" d="M381.239 81.5342C386.628 81.3348 392.051 81.7082 397.312 82.9337C403.363 84.343 410.296 86.9093 414.937 91.1328C417.727 93.672 419.648 96.5584 421.599 99.7534L383.507 99.7496L342.986 100.083L345.188 97.4225C354.461 86.84 367.556 82.4069 381.239 81.5342Z"/>
	<path fill="#393E41" transform="scale(0.666667 0.666667)" d="M547.877 592.838C547.945 617.737 548.933 642.578 539.222 666.109C537.074 671.314 534.536 676.637 530.485 680.661C524.595 686.512 517.339 688.186 509.283 688.093L460.772 686.051L363.338 685.315L309.215 686.695L283.758 687.719C278.93 687.84 273.977 688.066 269.156 687.683C263.116 687.203 257.008 684.67 252.715 680.329C246.231 673.773 243.184 664.254 241.05 655.5C239.196 647.896 237.648 640.212 236.865 632.417C235.583 619.671 235.935 606.829 236.023 594.041L244.131 594.958C247.49 595.325 250.88 596.203 254.259 596.642L291.18 600.657L354.48 603.629C396.113 604.985 437.911 605.233 479.507 602.751C494.506 601.857 509.481 600.603 524.327 598.21C532.238 596.934 540.32 595.569 547.877 592.838Z"/>
	<path fill="#E94F37" transform="scale(0.666667 0.666667)" d="M237.248 174.431C235.802 172.209 234.014 170.212 232.599 167.949C228.629 161.6 228.413 153.74 229.371 146.531C230.404 138.76 233.659 132.787 239.955 128.069C243.524 125.394 248.126 123.503 252.515 122.739C260.141 121.411 268.778 122.442 276.53 122.514C287.582 122.617 299.422 121.847 310.325 123.398C311.922 124.575 314.874 124.288 316.893 124.345L352.288 124.488L413.783 124.492L441.958 124.44C445.493 124.419 450.967 124.971 454.301 124.008L454.887 123.777C460.491 122.945 466.255 122.966 471.91 122.867L494.971 122.628C503.673 122.578 513.219 121.715 521.79 123.119C526.958 123.966 531.775 125.708 536.016 128.831C543.411 134.276 547.727 142.471 549.008 151.5C549.759 156.796 549.299 162.582 547.2 167.534C546.13 170.057 544.488 172.361 544.445 175.177L544.53 191.381L540.799 191.022L540.448 196.393L545.908 196.454L545.988 243.715C545.974 249.067 545.248 254.564 545.497 259.876C545.548 260.976 545.824 261.742 546.527 262.594C547.726 263.663 547.724 264.287 547.796 265.875L547.91 282.253C547.936 288.334 548.224 294.307 547.251 300.338C545.043 302.969 543.118 305.17 540 306.759C539.126 306.675 538.854 306.466 538.125 306.013L508.749 305.93L508.976 314.357C507.391 315.575 502.923 315.04 500.809 315.05L476.235 315.053L476.43 308.126L476.635 263.203C475.013 263.869 472.48 263.549 470.713 263.555L457.711 263.583L400.343 263.526L307.172 263.49L307.163 247.743C300.857 247.228 294.421 247.489 288.092 247.347L280.11 247.145C278.652 247.11 277.23 246.899 275.845 247.434L275.3 242.617C274.73 240.998 274.003 239.262 273.702 237.575C272.843 232.771 273.5 226.959 273.573 222.081L273.863 202.191L274.345 189.362C266.976 188.634 259.225 189.081 251.812 189.087C248.783 189.089 243.642 189.775 240.929 188.443C239.636 187.809 238.717 187.695 237.284 187.632L237.248 174.431Z"/>
	<path fill="#73CBD7" transform="scale(0.666667 0.666667)" d="M476.783 188.643C477.767 184.053 480.179 180.198 484.2 177.646C487.736 175.402 492.165 174.74 496.224 175.839C501.007 177.135 505.192 180.42 507.562 184.785L509.175 188.608C510.104 199.864 509.641 211.438 509.672 222.738C509.684 227.571 510.356 233.655 509.56 238.381C509.385 239.418 508.805 240.298 508.201 241.134L476.568 241.125L476.715 195.245L476.783 188.643Z"/>
	<path fill="#53BBCB" transform="scale(0.666667 0.666667)" d="M476.568 241.125L508.201 241.134C507.49 243.428 507.749 245.986 507.794 248.363L508.033 263.326L522.886 263.297L532.725 263.301C534.528 263.298 536.414 263.439 538.179 263.062L538.673 261.085L538.996 261.293C539.515 261.652 539.93 262.076 540.375 262.519C542.415 262.688 544.51 263.022 546.527 262.594C547.726 263.663 547.724 264.287 547.796 265.875L547.91 282.253C547.936 288.334 548.224 294.307 547.251 300.338C545.043 302.969 543.118 305.17 540 306.759C539.126 306.675 538.854 306.466 538.125 306.013L508.749 305.93L508.976 314.357C507.391 315.575 502.923 315.04 500.809 315.05L476.235 315.053L476.43 308.126L476.635 263.203L476.739 257.162L476.684 246.95L476.568 241.125Z"/>
	<path fill="#73CBD7" transform="scale(0.666667 0.666667)" d="M476.568 241.125L508.201 241.134C507.49 243.428 507.749 245.986 507.794 248.363L508.033 263.326L508.282 275.716C506.261 276.645 501.606 275.962 499.217 275.956L477.091 276.03L477.154 266.856C477.158 265.808 477.358 264.511 476.883 263.56L476.635 263.203L476.739 257.162L476.684 246.95L476.568 241.125Z"/>
	<path fill="#53BBCB" transform="scale(0.666667 0.666667)" d="M476.568 241.125L508.201 241.134C507.49 243.428 507.749 245.986 507.794 248.363L477.186 246.612L477.01 256.945L476.739 257.162L476.684 246.95L476.568 241.125Z"/>
	<path fill="#393E41" transform="scale(0.666667 0.666667)" d="M538.673 261.085L538.996 261.293C539.515 261.652 539.93 262.076 540.375 262.519C542.415 262.688 544.51 263.022 546.527 262.594C547.726 263.663 547.724 264.287 547.796 265.875L547.91 282.253C547.936 288.334 548.224 294.307 547.251 300.338C545.043 302.969 543.118 305.17 540 306.759C539.126 306.675 538.854 306.466 538.125 306.013L508.749 305.93L508.282 275.716L508.033 263.326L522.886 263.297L532.725 263.301C534.528 263.298 536.414 263.439 538.179 263.062L538.673 261.085Z"/>
	<path fill="#393E41" transform="scale(0.666667 0.666667)" d="M237.248 174.431C238.053 171.265 238.515 168.325 239.931 165.332C242.86 159.143 248.774 154.734 255.154 152.533C258.386 151.418 261.818 150.963 265.22 150.811L309.762 150.707L394.932 150.761L466.665 150.616L512.124 150.714C517.126 150.952 522.096 151.862 526.592 154.146C534.413 158.118 537.968 163.795 540.591 171.985C540.799 174.331 541.189 176.982 540.953 179.327C540.676 182.092 538.772 186.422 537.249 188.722L509.175 188.608L507.562 184.785C505.192 180.42 501.007 177.135 496.224 175.839C492.165 174.74 487.736 175.402 484.2 177.646C480.179 180.198 477.767 184.053 476.783 188.643L307.383 188.952C305.48 183.494 303.179 178.752 297.583 176.206C293.644 174.414 288.082 174.607 284.142 176.215C280.123 177.856 277.087 181.069 275.527 185.111L274.345 189.362C266.976 188.634 259.225 189.081 251.812 189.087C248.783 189.089 243.642 189.775 240.929 188.443C239.636 187.809 238.717 187.695 237.284 187.632L237.248 174.431Z"/>
	<path fill="#E94F37" transform="scale(0.666667 0.666667)" d="M274.345 189.362L275.527 185.111C277.087 181.069 280.123 177.856 284.142 176.215C288.082 174.607 293.644 174.414 297.583 176.206C303.179 178.752 305.48 183.494 307.383 188.952L476.783 188.643L476.715 195.245L476.568 241.125L476.684 246.95L476.739 257.162L476.635 263.203C475.013 263.869 472.48 263.549 470.713 263.555L457.711 263.583L400.343 263.526L307.172 263.49L307.163 247.743C300.857 247.228 294.421 247.489 288.092 247.347L280.11 247.145C278.652 247.11 277.23 246.899 275.845 247.434L275.3 242.617C274.73 240.998 274.003 239.262 273.702 237.575C272.843 232.771 273.5 226.959 273.573 222.081L273.863 202.191L274.345 189.362Z"/>
	<path fill="#73CBD7" transform="scale(0.666667 0.666667)" d="M274.345 189.362L275.527 185.111C277.087 181.069 280.123 177.856 284.142 176.215C288.082 174.607 293.644 174.414 297.583 176.206C303.179 178.752 305.48 183.494 307.383 188.952L307.344 242.668L307.163 247.743C300.857 247.228 294.421 247.489 288.092 247.347L280.11 247.145C278.652 247.11 277.23 246.899 275.845 247.434L275.3 242.617C274.73 240.998 274.003 239.262 273.702 237.575C272.843 232.771 273.5 226.959 273.573 222.081L273.863 202.191L274.345 189.362Z"/>
	<path fill="#53BBCB" transform="scale(0.666667 0.666667)" d="M275.3 242.617L307.344 242.668L307.163 247.743C300.857 247.228 294.421 247.489 288.092 247.347L280.11 247.145C278.652 247.11 277.23 246.899 275.845 247.434L275.3 242.617Z"/>
	<path fill="#E94F37" transform="scale(0.666667 0.666667)" d="M476.635 263.203L476.43 308.126L476.235 315.053L500.809 315.05C502.923 315.04 507.391 315.575 508.976 314.357L508.749 305.93L538.125 306.013C538.854 306.466 539.126 306.675 540 306.759C543.118 305.17 545.043 302.969 547.251 300.338L547.681 590.469L538.678 579.282L506.955 541.125L438.736 459.085L418.511 435.074L408.061 423.576C405.977 421.283 403.531 418.862 401.894 416.236L246.54 590.144C245.63 591.723 244.725 593.225 244.131 594.958L236.023 594.041L236.508 378.336L236.662 327.19L236.634 311.323C236.63 308.206 236.439 304.976 236.854 301.884C238.197 304.058 239.688 305.606 242.269 306.245C244.16 306.713 246.324 306.129 248.25 306.061L265.552 305.99C268.447 306 271.809 305.674 274.613 306.239L275.049 307.039C274.904 309.764 275.021 312.87 274.397 315.512L307.268 315.577L307.363 309.913L306.959 264.674L307.172 263.49L400.343 263.526L457.711 263.583L470.713 263.555C472.48 263.549 475.013 263.869 476.635 263.203Z"/>
	<path fill="#393E41" transform="scale(0.666667 0.666667)" d="M274.397 315.512L307.268 315.577L306.851 335.472L285.195 335.591C281.347 335.583 277.299 335.838 273.487 335.449L273.749 316.439L274.397 315.512Z"/>
	<path fill="#393E41" transform="scale(0.666667 0.666667)" d="M508.976 314.357L509.556 319.309L509.516 335.983L475.956 335.994L476.235 315.053L500.809 315.05C502.923 315.04 507.391 315.575 508.976 314.357Z"/>
	<path fill="#393E41" transform="scale(0.666667 0.666667)" d="M476.635 263.203L476.43 308.126L476.296 306.562C475.998 306.356 475.899 306.255 475.5 306.161C472.556 305.463 468.111 306.008 465.015 305.992L437.447 305.875L360.463 305.935L308.062 305.982L307.475 306.375L307.363 309.913L306.959 264.674L307.172 263.49L400.343 263.526L457.711 263.583L470.713 263.555C472.48 263.549 475.013 263.869 476.635 263.203Z"/>
</svg>
