<?xml version="1.0" encoding="utf-8" ?>
<svg xmlns="http://www.w3.org/2000/svg" xmlns:xlink="http://www.w3.org/1999/xlink" width="511" height="512">
	<path fill="#F6F7EB" transform="scale(0.666667 0.666667)" d="M-0 -0L768 0L768 768L-0 768L0 -0Z"/>
	<path fill="#C32713" transform="scale(0.666667 0.666667)" d="M133.071 420.391C134.779 418.057 133.635 416.312 133.978 413.708L134.812 413.416C136.299 413.734 137.094 414.488 138.227 415.464L137.373 417.801C135.908 418.821 135.009 419.822 133.99 421.283L133.071 420.391Z"/>
	<path fill="#010101" transform="scale(0.666667 0.666667)" d="M111.594 489.183L112.132 489.911C99.1303 502.46 87.4248 516.371 75.1644 529.632L61.1832 544.259C58.4714 547.026 55.5262 549.752 53.0145 552.694C51.757 554.168 50.8673 555.984 50.037 557.724C49.3366 556.41 48.367 555.187 48.4143 553.688C49.6224 553.41 50.8304 553.14 51.8185 552.349C56.7461 548.402 61.2652 542.917 65.6918 538.351L111.594 489.183Z"/>
	<path fill="#010101" transform="scale(0.666667 0.666667)" d="M653.786 486.696C653.539 486.054 653.469 485.62 653.394 484.946L701.435 536.033L711.809 546.706C713.465 548.444 715.115 550.593 716.947 552.119C717.702 552.748 718.7 552.72 719.619 552.85C720.254 552.94 720.555 553.111 721.029 553.533C720.975 554.998 719.613 556.476 719.003 557.84C717.9 555.613 716.931 553.371 715.199 551.557L653.786 486.696Z"/>
	<path fill="#C32713" transform="scale(0.666667 0.666667)" d="M642.931 421.312L643.482 421.688C642.846 422.732 642.436 423.812 642.28 425.028C642.185 425.773 641.667 428.411 641.892 429.009C642.041 429.403 643.083 430.238 643.415 430.579L649.121 436.272L698.184 482.257L710.872 493.45C713.574 495.779 717.29 498.355 719.434 501.188C718.282 501.129 716.961 499.715 716.031 498.971L657.248 445.387L645.6 434.153C643.164 431.824 640.449 429.482 638.247 426.932C636.982 425.465 636.127 423.299 635.27 421.562C637.881 422.45 639.892 422.512 642.457 421.507L642.931 421.312Z"/>
	<path fill="#393E41" transform="scale(0.666667 0.666667)" d="M133.99 421.283C132.191 424.525 129.581 427.017 127.046 429.668L115.652 441.074L80.182 474.563L59.8142 493.184C56.6578 495.935 53.1618 499.332 49.5 501.319L49.2355 501C51.1023 498.58 54.7236 496.407 57.1222 494.395L67.433 485.268L100.348 454.525C108.237 447.135 116.756 439.78 124.036 431.812C124.468 431.34 125.585 430.201 125.723 429.635C125.98 428.592 125.358 425.616 125.289 424.312C126.267 422.791 126.315 423.982 127.688 423.703C129.277 423.379 131.685 421.306 133.071 420.391L133.99 421.283Z"/>
	<path fill="#E94F37" transform="scale(0.666667 0.666667)" d="M628.214 414.057C628.922 414.425 629.619 414.82 630.363 415.11L634.265 413.998L634.609 420.556C633.202 419.596 631.834 418.675 630.578 417.517C630.618 420.208 631.744 423.033 632.475 425.632L640.039 449.593C643.004 458.962 645.415 468.868 649.19 477.943C650.28 480.562 651.682 482.697 653.394 484.946C653.469 485.62 653.539 486.054 653.786 486.696C653.125 488.422 653.862 490.909 654.162 492.75L658.391 513.201L569.96 414.85C576.07 414.306 582.576 414.731 588.73 414.725L612.659 414.386C617.67 414.373 623.284 414.882 628.214 414.057Z"/>
	<path fill="#6C3731" transform="scale(0.666667 0.666667)" d="M206.186 414.84C205.041 419.986 202.714 425.123 201.195 430.213L190.296 468.613L183.902 493.312L170.002 543.105L166.873 555.725C166.174 558.061 165.374 560.702 163.516 562.359L163.561 563.17L142.981 561.107L111.546 560.642L104.379 561.618C100.748 560.744 96.3366 561.059 92.5829 560.801C83.9376 560.206 75.3488 559.461 66.8522 557.69L167.161 456.756L169.118 454.757C170.605 452.209 173.014 450.147 175.08 448.08L185.066 437.921L206.186 414.84Z"/>
	<path fill="#C32713" transform="scale(0.666667 0.666667)" d="M111.546 560.642L108.562 560.433C109.428 559.385 111.96 559.294 113.247 559.069C116.554 558.493 119.844 557.663 123.188 557.331C127.234 556.929 131.437 557.668 135.475 558C138.29 558.232 141.013 558.176 143.825 558.601C141.738 558.829 136.728 559.248 134.813 558.375L133.714 558.567L134.436 559.781C135.295 559.823 136.267 559.765 137.062 560.098C138.501 560.702 140.997 560.255 142.688 560.625L144.962 560.719L142.981 561.107L111.546 560.642Z"/>
	<path fill="#E94F37" transform="scale(0.666667 0.666667)" d="M167.161 456.756L169.118 454.757L169.688 538.308C168.466 536.514 167.479 479.878 167.365 472.843L167.372 461.107C167.385 459.911 167.689 457.799 167.161 456.756Z"/>
	<defs>
		<linearGradient id="gradient_0" gradientUnits="userSpaceOnUse" x1="204.897" y1="318.21899" x2="262.64801" y2="357.26501">
			<stop offset="0" stop-color="#572C2B"/>
			<stop offset="1" stop-color="#8D463B"/>
		</linearGradient>
	</defs>
	<path fill="url(#gradient_0)" transform="scale(0.666667 0.666667)" d="M377.66 178.68C378.602 178.768 378.93 178.646 379.691 179.25C379.713 183.027 377.275 186.912 375.573 190.234L351.032 227.991L304.855 294.562L280.577 325.879L225.863 391.98L213.329 406.452C211.901 408.07 209.537 411.296 207.652 412.281C204.296 413.992 201.378 417.561 198.85 420.318L187.102 433.185L128.896 493.974C121.746 501.346 115.17 509.916 107.467 516.655L115.796 486.629L112.132 489.911L111.594 489.183L113.196 487.699C114.072 486.872 115.252 485.941 115.821 484.866C117.398 481.886 118.368 478.248 119.429 475.03L124.556 459.565L131.978 437.25C133.53 432.635 135.291 427.98 136.541 423.274C137.03 421.433 137.314 419.707 137.373 417.801L138.227 415.464L377.66 178.68Z"/>
	<path fill="#393E41" transform="scale(0.666667 0.666667)" d="M168.842 561.15C183.683 557.146 200.519 557.353 215.808 557.237C221.955 557.191 228.335 556.79 234.41 557.836L234.771 557.32C237.92 552.86 241.758 548.911 245.138 544.626L264.981 518.234C297.2 473.337 326.858 427.005 353.789 378.76C365.219 358.284 376.595 338.009 385.861 316.432C387.135 319.784 388.943 322.842 390.346 326.141L401.534 351.237C413.285 374.604 427.599 397.01 441.211 419.336L477.809 478.947L505.76 520.069C514.63 532.766 523.205 546.814 533.982 557.954C539.696 557.033 545.454 557.175 551.223 557.262C561.928 557.423 572.793 558.216 583.433 559.405C589.376 560.069 595.397 561.132 601.367 561.343L601.346 562.221C601.582 562.723 601.79 563.146 602.192 563.539C602.765 564.098 602.889 564.289 603.719 564.382C605.366 564.568 607.305 563.281 609 562.961C612.467 562.308 616.122 562.129 619.636 561.849L658.112 560.675C661.982 561.196 665.935 561.524 669.679 562.66L732.42 566.812L732.77 567.562L732.251 568.368C729.943 569.048 727.404 568.855 725.018 568.846L712.965 568.692L675.557 568.169L608.05 570.264L537.58 570.001C537.582 568.482 537.537 566.956 537.788 565.453C537.907 564.741 537.959 564.167 537.89 563.438C536.842 563.089 536.115 562.763 535.009 563.117L534.656 564L535.089 564.857C535.923 566.262 535.643 568.37 535.661 569.997L348.659 569.984C337.987 569.986 235.409 570.607 233.223 569.438C232.535 567.81 232.93 565.295 233.225 563.596C233.329 562.998 233.362 563.362 232.875 562.627L229.186 562.791C230.032 564.726 231.832 567.695 231.562 569.767C230.66 569.967 230.201 569.949 229.312 569.695C229.109 569.074 228.919 568.567 228.562 568.019C228.25 568.691 227.967 569.09 227.438 569.609L159.373 570.043L70.0318 568.201L46.8655 568.439C45.1564 568.414 41.8662 568.74 40.3923 567.938L40.3125 566.863L40.875 566.247C56.2515 566.095 71.6607 565.57 86.9618 564C92.7681 563.404 98.6886 562.952 104.379 561.618L111.546 560.642L142.981 561.107L163.561 563.17C164.357 563.701 164.968 564.135 165.938 564.294L168.842 561.15Z"/>
	<path fill="#F6F7EB" transform="scale(0.666667 0.666667)" d="M383.455 330.826C383.53 333.225 383.184 335.739 383.027 338.143L381.92 353.693C380.529 373.158 378.298 392.329 374.573 411.51C371.313 428.292 366.922 444.762 362.23 461.188L350.102 499.552L335.014 538.937C332.672 544.899 329.738 550.86 327.975 557L327.843 557.473L240.562 557.787C240.089 557.749 240.371 557.813 239.769 557.438C245.744 551.247 250.978 544.193 256.153 537.33L280.479 503.363C308.381 463.042 334.831 421.842 358.562 378.909C367.323 363.058 376.096 347.401 383.455 330.826Z"/>
	<path fill="#F6F7EB" transform="scale(0.666667 0.666667)" d="M499.095 517.956L513.595 538.924C518.283 545.652 522.557 552.354 528.372 558.193L332.186 557.58C338.767 543.837 343.896 528.973 349.084 514.649C364.808 471.227 378.464 426.518 383.73 380.474C386.012 360.514 385.785 340.471 386.397 320.438L386.773 320.438C387.25 327.632 388.818 334.499 391.645 341.118C396.609 352.741 403.245 363.682 409.51 374.625L443.77 431.958L480.306 490.801L495.322 513.175C485.616 506.963 472.095 506.399 460.998 508.778C456.762 509.685 453.38 511.522 450.215 514.405L450.109 515.097C450.012 515.709 449.862 516.151 449.643 516.722C448.884 518.7 449.425 522.142 449.488 524.318L450.015 541.62L473.425 541.833C478.047 541.834 483.343 542.28 487.882 541.444C490.756 540.914 492.964 539.918 495.144 537.973L498.718 534.274C500.189 528.627 499.942 523.657 499.095 517.956Z"/>
	<path fill="#E94F37" transform="scale(0.666667 0.666667)" d="M389.894 517.389L389.896 517.349C396.044 511.195 402.831 509.188 411.351 508.582C421.299 507.874 435.144 508.071 443.034 514.935C444.155 515.457 445.738 516.199 446.97 516.331C448.247 516.467 449.274 515.191 450.215 514.405L450.109 515.097C450.012 515.709 449.862 516.151 449.643 516.722C448.884 518.7 449.425 522.142 449.488 524.318L450.015 541.62L473.425 541.833C478.047 541.834 483.343 542.28 487.882 541.444C490.756 540.914 492.964 539.918 495.144 537.973L498.718 534.274C498.475 539.206 500.072 547.378 496.49 551.168C494.137 553.656 491.176 554.438 487.875 554.568L466.504 554.659L428.129 554.689L404.606 554.699C400.775 554.701 396.656 555.012 392.853 554.592C390.41 554.323 386.831 552.563 385.083 550.831C384.44 550.193 384.161 549.523 384.057 548.625C383.762 546.095 383.977 543.301 383.978 540.749L384.011 527.053C384.091 523.391 387.364 519.788 389.894 517.389Z"/>
	<path fill="#393E41" transform="scale(0.666667 0.666667)" d="M389.894 517.389L389.896 517.349C396.044 511.195 402.831 509.188 411.351 508.582C421.299 507.874 435.144 508.071 443.034 514.935C444.878 518.633 444.367 523.026 444.365 527.057L444.229 541.654L411.399 541.773C406.559 541.764 400.756 542.29 396.051 541.363C394.19 540.996 392.139 540.06 390.814 538.692C387.838 535.622 388.186 531.225 388.389 527.281C388.498 525.162 388.743 523.128 389.196 521.055C389.464 519.833 390.021 518.647 389.894 517.389Z"/>
	<path fill="#E94F37" transform="scale(0.666667 0.666667)" d="M377.66 178.68C379.64 176.715 381.593 174.522 384.009 173.099C389.44 177.485 393.774 183.117 398.701 188.044L435.092 224.478L459.908 247.852L490.098 276.612L545.258 332.028C567.594 354.657 587.097 380.21 611.534 400.733L628.214 414.057C623.284 414.882 617.67 414.373 612.659 414.386L588.73 414.725C582.576 414.731 576.07 414.306 569.96 414.85C564.31 409.592 559.549 402.909 554.511 397.029L523.512 361.135L480.008 310.813L462.67 290.23C459.651 286.556 456.324 282.89 453.703 278.924L432.962 253.933L432.123 254.289C431.171 257.014 432.721 259.573 433.935 262.062C436.016 266.328 438.971 270.236 441.788 274.041L456.426 292.836L480.216 322.756L566.334 417.75L584.516 438.11L592.817 447.626C593.621 448.613 595.102 450.082 595.625 451.215C595.988 452.001 595.809 454.642 595.859 455.599L596.774 473.996L599.787 518.942L601.529 552.028C603.15 554.312 604.661 556.01 606.842 557.777L603.589 514.138L598.433 452.488L598.795 452.993C603.625 459.671 609.666 465.514 615.186 471.61L673.406 530.837L690.255 546.557C693.676 549.69 697.667 552.721 700.529 556.368L683.08 560.089L674.195 561.624C672.722 561.868 671.003 561.973 669.679 562.66C665.935 561.524 661.982 561.196 658.112 560.675L619.636 561.849C616.122 562.129 612.467 562.308 609 562.961C607.305 563.281 605.366 564.568 603.719 564.382C602.889 564.289 602.765 564.098 602.192 563.539C601.79 563.146 601.582 562.723 601.346 562.221L601.367 561.343C595.397 561.132 589.376 560.069 583.433 559.405C572.793 558.216 561.928 557.423 551.223 557.262C545.454 557.175 539.696 557.033 533.982 557.954C523.205 546.814 514.63 532.766 505.76 520.069L477.809 478.947L441.211 419.336C427.599 397.01 413.285 374.604 401.534 351.237L390.346 326.141C388.943 322.842 387.135 319.784 385.861 316.432C376.595 338.009 365.219 358.284 353.789 378.76C326.858 427.005 297.2 473.337 264.981 518.234L245.138 544.626C241.758 548.911 237.92 552.86 234.771 557.32L234.41 557.836C228.335 556.79 221.955 557.191 215.808 557.237C200.519 557.353 183.683 557.146 168.842 561.15L165.938 564.294C164.968 564.135 164.357 563.701 163.561 563.17L163.516 562.359C165.374 560.702 166.174 558.061 166.873 555.725L170.002 543.105L183.902 493.312L190.296 468.613L201.195 430.213C202.714 425.123 205.041 419.986 206.186 414.84C206.843 414.077 207.22 413.181 207.652 412.281C209.537 411.296 211.901 408.07 213.329 406.452L225.863 391.98L280.577 325.879L304.855 294.562L351.032 227.991L375.573 190.234C377.275 186.912 379.713 183.027 379.691 179.25C378.93 178.646 378.602 178.768 377.66 178.68Z"/>
	<path fill="#FF9F64" transform="scale(0.666667 0.666667)" d="M453.703 278.924L454.414 278.062C453.742 275.584 451.901 273.062 450.726 270.75C446.055 261.556 440.875 253.327 435.075 244.786C431.534 239.572 427.339 234.291 424.544 228.656L449.163 254.301L467.691 272.062L504.561 308.895L528.604 331.69C550.214 352.486 571.026 374.227 595.125 392.196C599.718 395.62 604.475 399.493 609.75 401.769C610.37 401.451 610.996 401.18 611.534 400.733L628.214 414.057C623.284 414.882 617.67 414.373 612.659 414.386L588.73 414.725C582.576 414.731 576.07 414.306 569.96 414.85C564.31 409.592 559.549 402.909 554.511 397.029L523.512 361.135L480.008 310.813L462.67 290.23C459.651 286.556 456.324 282.89 453.703 278.924Z"/>
	<path fill="#FF9F64" transform="scale(0.666667 0.666667)" d="M384.314 179.789L384.452 174.362L400.401 202.158L418.604 231.071L429.716 248.481C430.629 249.939 432.585 252.346 432.962 253.933L432.123 254.289C431.171 257.014 432.721 259.573 433.935 262.062C436.016 266.328 438.971 270.236 441.788 274.041L456.426 292.836L480.216 322.756L566.334 417.75L584.516 438.11L592.817 447.626C593.621 448.613 595.102 450.082 595.625 451.215C595.988 452.001 595.809 454.642 595.859 455.599L596.774 473.996L599.787 518.942L601.529 552.028C599.03 550.26 596.961 547.698 594.917 545.431L585.5 534.814L501.667 429.117L439.618 350.968L422.835 330.542L402.115 302.796C396.737 295.541 390.717 288.447 386.3 280.554C385.822 279.73 385.485 278.947 385.203 278.036L385.042 277.5C383.353 272.08 384.095 264.772 384.094 259.083L384.239 229.726L384.314 179.789Z"/>
	<path fill="#F6F7EB" transform="scale(0.666667 0.666667)" d="M168.842 561.15C171.032 557.592 175.584 555.067 178.698 552.298C181.21 550.063 183.582 547.619 185.892 545.178L235.559 488.876C280.011 434.747 323.229 379.792 361.485 321.041L377.358 294.886C379.811 290.384 381.625 285.378 384.338 281.062L384.827 281.199L385.327 282.735C387.02 289.815 389.328 295.946 393.35 302.062C406.054 321.382 421.316 338.672 435.812 356.625L497.365 433.43L512.258 452.658L533.122 479.139L577.134 534.938L601.734 560.819L601.367 561.343C595.397 561.132 589.376 560.069 583.433 559.405C572.793 558.216 561.928 557.423 551.223 557.262C545.454 557.175 539.696 557.033 533.982 557.954C523.205 546.814 514.63 532.766 505.76 520.069L477.809 478.947L441.211 419.336C427.599 397.01 413.285 374.604 401.534 351.237L390.346 326.141C388.943 322.842 387.135 319.784 385.861 316.432C376.595 338.009 365.219 358.284 353.789 378.76C326.858 427.005 297.2 473.337 264.981 518.234L245.138 544.626C241.758 548.911 237.92 552.86 234.771 557.32L234.41 557.836C228.335 556.79 221.955 557.191 215.808 557.237C200.519 557.353 183.683 557.146 168.842 561.15Z"/>
</svg>
