<?xml version="1.0" encoding="utf-8" ?>
<svg xmlns="http://www.w3.org/2000/svg" xmlns:xlink="http://www.w3.org/1999/xlink" width="512" height="512">
	<path fill="#F6F7EB" transform="scale(0.666667 0.666667)" d="M-0 -0L768 0L768 768L-0 768L0 -0Z"/>
	<path fill="#393E41" transform="scale(0.666667 0.666667)" d="M662.202 529.118C663.993 531.585 666.011 533.136 666.438 536.438C666.742 538.794 666.264 541.129 664.773 543.014C663.786 544.262 662.699 545.138 661.06 545.266C657.096 545.578 652.961 545.322 648.978 545.376L619.154 545.626L533.778 545.657L270.092 545.697L160.853 545.807L125.771 545.842C119.59 545.859 113.19 546.219 107.028 545.798C105.399 545.686 104.053 545.499 102.799 544.363C101.017 542.75 100.473 541.238 100.381 538.875C100.277 536.229 100.411 533.73 102.363 531.715C103.334 530.711 104.738 530.104 106.125 529.977C109.084 529.705 112.559 530.444 115.578 530.549L136.513 530.675L221.684 530.601L221.962 340.384C222.022 330.045 224.723 319.828 232.362 312.395C235.933 308.92 240.574 306.216 245.449 305.091C251.114 303.783 257.762 304.483 263.608 304.491L294.019 304.618C293.912 300.083 293.041 293.083 296.477 289.602C300.168 285.862 309.654 287.463 314.657 287.598C316.153 270.334 319.968 254.953 331.944 241.759C344.403 228.032 363.399 220.838 381.657 220.123C407.608 219.106 434.022 231.037 446.056 254.969C450.783 264.369 453.878 274.651 454.545 285.18L454.647 286.941C454.653 287.064 454.562 287.244 454.666 287.31C454.758 287.37 456.214 287.298 456.424 287.296L465.499 287.282C466.429 287.291 468.038 287.108 468.849 287.452C469.565 287.756 470.486 288.575 471.023 289.125C474.564 292.753 473.493 300.277 473.527 304.956L505.982 304.485C510.75 304.455 516.347 303.824 520.981 304.722C524.704 305.443 528.031 307.157 531.146 309.254C538.942 314.504 544.141 321.465 545.926 330.781L546.059 331.5C547.61 339.516 547.052 348.275 547.095 356.415L547.203 394.814L547.372 395.324C547.977 397.313 547.568 400.592 547.574 402.706L547.603 421.864L547.464 522.318L621.476 522.3L643.159 522.281C646.879 522.28 650.888 521.967 654.562 522.486C656.505 522.76 658.368 524.173 659.699 525.539C660.752 526.62 661.472 527.804 662.202 529.118Z"/>
	<path fill="#F6F7EB" transform="scale(0.666667 0.666667)" d="M450.669 297.563L462.482 297.553L462.469 304.897L452.062 304.876L440.195 304.914L440.253 297.764L450.669 297.563Z"/>
	<path fill="#F6F7EB" transform="scale(0.666667 0.666667)" d="M305.066 297.084L328.94 296.96L328.91 304.613L304.854 304.63L305.066 297.084Z"/>
	<path fill="#D0D6DD" transform="scale(0.666667 0.666667)" d="M547.203 394.814L547.372 395.324C547.977 397.313 547.568 400.592 547.574 402.706L547.603 421.864L547.464 522.318L621.476 522.3L643.159 522.281C646.879 522.28 650.888 521.967 654.562 522.486C656.505 522.76 658.368 524.173 659.699 525.539C660.752 526.62 661.472 527.804 662.202 529.118C650.215 530.636 638.209 530.241 626.145 530.263L575.956 530.359L555.93 530.424C553.206 530.432 549.425 530.908 546.819 530.274L547.203 394.814Z"/>
	<path fill="#F6F7EB" transform="scale(0.666667 0.666667)" d="M378.714 234.897L378.859 234.875C393.914 233.569 410.002 236.828 421.731 246.866C431.095 254.88 437.657 265.965 440.063 278.066C440.641 280.971 440.773 284.013 440.998 286.964L437.788 286.824C435.25 286.767 433.037 287.406 431.218 289.274C427.745 292.839 429.035 299.964 429.127 304.542L389.812 304.371L339.31 304.619L339.363 295.581C339.34 292.804 338.432 290.375 336.347 288.474C334.298 286.606 330.084 287.438 327.479 287.593C328.983 275.542 331.432 264.278 339.143 254.511C348.719 242.38 363.763 236.57 378.714 234.897Z"/>
	<path fill="#E94F37" transform="scale(0.666667 0.666667)" d="M245.35 530.917L231.92 531.051L232.055 478.313L231.983 392.574L231.878 354.515C231.863 348.023 231.303 340.983 232.146 334.547C232.735 330.049 235.165 325.77 238.181 322.448C241.516 318.775 245.477 316.604 250.488 316.414L299.982 315.985L427.704 315.744L490.927 316.091L509.589 316.214C513.024 316.242 516.685 316.047 520.088 316.498C522.829 316.862 526.215 319.244 528.188 321.142C531.848 324.665 534.102 329.47 534.85 334.469C535.938 341.742 535.432 349.617 535.377 356.986L535.08 393.894L535.244 530.652L518.49 530.556L475.4 530.531C474.323 530.722 472.855 530.553 471.734 530.556L462.992 530.567L430.912 530.687L340.443 531.077L335.187 530.959L273.951 530.611L245.35 530.917Z"/>
	<path fill="#D01A2E" transform="scale(0.666667 0.666667)" d="M518.799 355.272C519.458 356.807 519.749 358.289 519.139 359.905C518.614 361.298 517.473 363.168 516.004 363.728L515.671 363.807L512.625 363.625L511.783 363.07C510.812 362.622 510.424 362.507 509.578 361.794L509.905 361.352C511.049 361.533 513.002 361.794 514.081 361.382C516.538 360.443 517.836 357.484 518.799 355.272Z"/>
	<path fill="#D01A2E" transform="scale(0.666667 0.666667)" d="M334.878 471.613C337.022 472.515 338.466 473.667 339.354 475.875C340.244 478.091 340.087 480.892 340.119 483.246L340.248 494.688L340.443 531.077L335.187 530.959L334.878 471.613Z"/>
	<path fill="#F6F7EB" transform="scale(0.666667 0.666667)" d="M486.644 359.569C485.502 358.356 483.852 356.437 483.202 354.904C482.682 353.678 483.018 335.693 483.68 334.13C484.226 332.841 485.447 331.665 486.669 331.013C490.677 328.875 493.297 330.543 497.206 331.749C498.069 332.015 499.389 332.546 500.268 332.475C502.049 332.333 504.69 331.027 506.367 330.378C510.505 331.918 512.491 333.424 514.498 337.37L514.936 337.482C515.836 340.263 514.89 343.513 513.673 346.067C515.832 347.51 517.875 349.282 518.528 351.938C518.736 352.784 518.697 353.668 518.743 354.53L518.799 355.272C517.836 357.484 516.538 360.443 514.081 361.382C513.002 361.794 511.049 361.533 509.905 361.352L503.065 357.292C500.056 358.053 497.617 360.538 494.666 361.483C493.31 361.918 491.881 361.871 490.479 361.794L490.077 361.537C488.713 360.929 487.852 360.516 486.644 359.569Z"/>
	<path fill="#D01A2E" transform="scale(0.666667 0.666667)" d="M514.498 337.37L514.936 337.482C515.836 340.263 514.89 343.513 513.673 346.067C512.174 345.383 510.591 344.88 509.605 343.5L509.951 342.315C511.861 341.008 513.327 339.357 514.498 337.37Z"/>
	<path fill="#D01A2E" transform="scale(0.666667 0.666667)" d="M462.543 392.925C464.466 393.375 465.256 393.404 466.334 395.176C467.061 396.37 467.671 397.723 467.892 399.11C468.832 405.024 468.284 411.815 468.317 417.843L468.36 429.382C468.365 432.05 468.506 434.735 467.807 437.339C466.748 441.283 464.154 444.393 460.55 446.3C455.18 449.142 446.246 448.22 440.284 448.291L416.934 448.463L416.589 488.216L416.578 497.824C416.591 499.749 416.763 501.842 416.378 503.738C415.951 505.838 414.611 507.86 413.039 509.287C411.746 510.46 410.066 511.64 408.342 512.009C405.226 512.674 401.68 512.504 398.494 512.503L382.619 512.399C376.777 512.362 370.481 512.8 364.688 512.215C363.286 512.073 362.25 511.606 361.494 510.375C361.24 509.963 361.132 509.395 361.014 508.938L361.132 507.87C372.14 507.168 383.457 507.619 394.496 507.535C398.184 507.507 403.047 508.014 406.605 507.18C407.797 506.901 409.068 506.024 409.938 505.19C410.974 504.198 412.144 502.689 412.405 501.243C412.757 499.287 412.578 496.993 412.569 495.001L412.555 483.954L412.505 442.496L452.812 442.497C455.993 442.357 458.27 441.257 460.406 438.859C461.592 437.527 462.61 435.955 462.988 434.19C463.735 430.704 463.203 426.071 463.197 422.45L462.948 396.961L462.543 392.925Z"/>
	<path fill="#F6F7EB" transform="scale(0.666667 0.666667)" d="M313.687 466.054L324.555 465.822C326.235 465.818 328.193 465.616 329.831 465.936C330.879 466.14 331.999 466.532 332.812 467.247C334.164 468.435 334.733 469.85 334.878 471.613L335.187 530.959L273.951 530.611L245.35 530.917L244.857 497.545L244.839 481.953C244.855 479.028 244.609 475.786 245.437 472.947C245.87 471.462 246.845 470.07 247.956 469.008C249.836 467.211 251.985 466.478 254.5 466.111C260.607 465.218 267.65 466.033 273.863 466.052L313.687 466.054Z"/>
	<path fill="#D3BBC2" transform="scale(0.666667 0.666667)" d="M271.564 498.571L271.402 498.548C268.413 498.794 262.881 499.604 260.15 498.562L259.975 496.875C260.044 496.386 260.195 495.838 260.637 495.566C262.487 494.427 269.572 494.53 271.698 495.084L271.564 498.571Z"/>
	<path fill="#393E41" transform="scale(0.666667 0.666667)" d="M272.956 509.438C275.196 509.094 277.742 509.322 280.014 509.313L294.188 509.277C296.138 509.273 301.283 508.725 302.812 509.807C302.873 510.361 302.908 510.805 302.738 511.347C302.387 512.466 302.292 512.459 301.312 512.997C297.215 513.019 274.029 513.93 272.057 512.708C271.497 512.361 271.583 511.912 271.45 511.312C271.868 510.027 271.767 510.057 272.956 509.438Z"/>
	<path fill="#295E71" transform="scale(0.666667 0.666667)" d="M271.698 495.084C274.763 494.401 299.9 494.091 301.734 495.257C302.3 495.617 302.374 496.102 302.638 496.688C302.561 497.19 302.646 497.934 302.171 498.214C300.596 499.141 296.579 498.681 294.641 498.688L278.942 498.719C276.594 498.72 273.839 499.004 271.564 498.571L271.698 495.084Z"/>
	<path fill="#F6F7EB" transform="scale(0.666667 0.666667)" d="M430.912 530.687L430.956 493.531L431.084 479.879C431.087 478.348 431.368 476.086 430.688 474.73C426.49 474.839 426.897 479.355 423.938 480.685L423.188 480.262C422.578 479.188 422.212 478.311 422.196 477.054C422.15 473.516 423.425 469.572 426.02 467.081C427.608 465.557 429.545 464.76 431.694 464.406C436.946 463.54 442.857 464.272 448.201 464.315L480.289 464.387L498.55 464.389C502.079 464.398 506.051 464.113 509.506 464.899C511.671 465.392 513.782 466.529 515.379 468.075C516.774 469.426 517.835 471.151 518.226 473.062C519.17 477.679 518.531 483.543 518.529 488.289L518.48 521.743C518.475 524.246 517.934 528.182 518.49 530.556L475.4 530.531C474.323 530.722 472.855 530.553 471.734 530.556L462.992 530.567L430.912 530.687Z"/>
	<path fill="#393E41" transform="scale(0.666667 0.666667)" d="M468.216 498.932L490.257 498.89C494.054 498.894 498.632 498.428 502.312 499.306C503.245 500.129 503.41 500.182 503.686 501.375L503.067 502.312C501.287 503.307 499.135 502.929 497.156 502.842L469.394 502.566C467.703 502.553 463.872 503.016 462.375 502.522C462.068 502.421 461.86 502.132 461.602 501.938C461.597 500.658 461.394 500.136 462.188 499.099L468.216 498.932Z"/>
	<path fill="#393E41" transform="scale(0.666667 0.666667)" d="M463.166 476.812L491.665 476.712C494.359 476.707 501.274 475.933 503.266 477.562C503.638 478.646 503.796 479.102 503.502 480.258L502.312 480.707L472.001 480.721C469.747 480.718 463.464 481.333 461.899 480.034C461.78 478.95 461.651 478.117 462.044 477.063L463.166 476.812Z"/>
	<path fill="#393E41" transform="scale(0.666667 0.666667)" d="M498.589 487.308L501.938 487.461C502.864 487.704 503.045 488.264 503.514 489.015C503.519 490.355 503.594 490.408 502.761 491.438C499.559 492.291 494.926 491.726 491.563 491.724L467.438 491.685C465.88 491.656 462.956 492.036 461.768 491.123C461.662 489.961 461.472 488.889 461.875 487.764C464.048 486.798 468.922 487.431 471.4 487.424L498.589 487.308Z"/>
	<path fill="#393E41" transform="scale(0.666667 0.666667)" d="M499.731 509.435L500.262 509.321C501.731 509.243 502.783 509.536 503.878 510.433C503.894 512.002 503.715 512.142 502.884 513.396C501.106 514.449 495.43 513.808 493.207 513.809L466.031 513.839C464.667 513.815 462.81 514.148 461.774 513.259C461.72 512.095 461.46 510.755 462.071 509.715C465.635 509.07 470.052 509.53 473.71 509.527L499.731 509.435Z"/>
	<path fill="#F6F7EB" transform="scale(0.666667 0.666667)" d="M311.771 443.87C310.36 443.156 309.105 442.445 307.94 441.366C304.374 438.06 302.618 433.97 302.459 429.148L302.413 408.708C302.427 404.802 301.957 399.885 302.851 396.106C303.436 393.63 304.683 391.455 306.467 389.64C308.36 387.713 310.896 386.298 313.544 385.745C317.84 384.849 323.05 385.361 327.45 385.351L355.978 385.42L356.246 356.441C356.256 349.651 355.746 342.371 356.378 335.637C356.507 334.27 356.779 332.924 357.393 331.688C358.479 329.496 360.476 327.398 362.855 326.651C364.809 326.038 367.263 326.313 369.297 326.337L380.291 326.417L398.037 326.479C401.012 326.493 404.348 326.208 407.267 326.693C407.51 326.733 407.781 326.822 407.989 326.961L408.562 327.394L409.894 328.439C411.462 329.832 412.19 331.433 412.263 333.524L412.273 334.561C413.722 334.551 414.613 334.51 415.847 335.319C416.492 336.332 416.357 337.608 416.401 338.773L416.501 348.664L416.448 385.886L419.085 385.885L443.051 385.82C446.678 385.785 450.623 385.11 454.178 385.853C456.426 386.323 458.572 387.556 460.15 389.225C461.169 390.303 461.891 391.605 462.543 392.925L462.948 396.961L463.197 422.45C463.203 426.071 463.735 430.704 462.988 434.19C462.61 435.955 461.592 437.527 460.406 438.859C458.27 441.257 455.993 442.357 452.812 442.497L412.505 442.496L412.555 483.954L412.569 495.001C412.578 496.993 412.757 499.287 412.405 501.243C412.144 502.689 410.974 504.198 409.938 505.19C409.068 506.024 407.797 506.901 406.605 507.18C403.047 508.014 398.184 507.507 394.496 507.535C383.457 507.619 372.14 507.168 361.132 507.87L361.014 508.938C359.206 508.336 357.78 507.676 356.463 506.257C355.819 505.565 355.405 504.702 355.285 503.762C354.68 499.054 355.425 493.414 355.444 488.599L355.592 449.271L332.668 449.222C327.597 449.202 322.163 449.529 317.171 448.59L316.688 448.493C314.624 448.103 312.443 447.457 311.062 445.796C311.061 444.667 311.018 444.704 311.771 443.87Z"/>
	<path fill="#D01A2E" transform="scale(0.666667 0.666667)" d="M311.771 443.87C315.982 445.035 320.365 444.682 324.688 444.615L345.496 444.31C348.776 444.267 352.453 443.873 355.695 444.289L355.592 449.271L332.668 449.222C327.597 449.202 322.163 449.529 317.171 448.59L316.688 448.493C314.624 448.103 312.443 447.457 311.062 445.796C311.061 444.667 311.018 444.704 311.771 443.87Z"/>
	<path fill="#D01A2E" transform="scale(0.666667 0.666667)" d="M412.273 334.561C413.722 334.551 414.613 334.51 415.847 335.319C416.492 336.332 416.357 337.608 416.401 338.773L416.501 348.664L416.448 385.886L412.125 386.141L412.099 334.814L412.273 334.561Z"/>
</svg>
