<?xml version="1.0" encoding="utf-8" ?>
<svg xmlns="http://www.w3.org/2000/svg" xmlns:xlink="http://www.w3.org/1999/xlink" width="512" height="512">
	<path fill="#F6F7EB" transform="scale(0.666667 0.666667)" d="M-0 -0L768 0L768 768L-0 768L0 -0Z"/>
	<path fill="#FFB85D" transform="scale(0.666667 0.666667)" d="M395.38 190.688L396.148 190.624C397.252 193.653 397.889 196.806 398.733 199.911L403.866 221.302C405.575 229.446 407.001 237.169 409.75 245.07C408.78 244.298 408.146 243.098 407.463 242.063L397.72 225.474C394.948 220.546 392.365 215.777 391.301 210.151C389.958 203.05 391.33 196.641 395.38 190.688Z"/>
	<path fill="#FC8F4C" transform="scale(0.666667 0.666667)" d="M432.573 244.857L438.467 253.679C439.073 254.546 440.628 256.221 440.89 257.177L439.683 257.062C439.784 258.391 440.773 259.614 441.369 260.793L446.36 270.856L460.411 301.6C465.939 312.553 472.744 322.862 479.565 333.038L487.832 345.619C487.496 346.511 487.252 347.305 486.56 347.995C481.454 342.039 475.103 336.825 469.635 331.149C455.194 316.157 439.879 299.018 435.996 277.875C435.132 273.17 435.212 268.133 434.704 263.365C434.055 257.281 432.778 250.927 432.573 244.857Z"/>
	<defs>
		<linearGradient id="gradient_0" gradientUnits="userSpaceOnUse" x1="359.867" y1="340.39401" x2="303.508" y2="260.73099">
			<stop offset="0" stop-color="#FA862D"/>
			<stop offset="1" stop-color="#FFE17E"/>
		</linearGradient>
	</defs>
	<path fill="url(#gradient_0)" transform="scale(0.666667 0.666667)" d="M360.695 220.585C360.826 220.88 361.322 221.729 361.321 222C361.318 222.784 360.861 224.021 360.673 224.813L358.403 233.088L347.236 278.286C344.172 291.74 340.618 305.428 335.194 318.137C329.73 330.938 322.732 342.879 316.558 355.319L307.803 372.539C306.246 375.558 304.823 378.913 302.852 381.675C305.349 365.198 306.306 348.179 311.216 332.155C312.119 329.208 313.745 326.732 314.744 323.91L313.875 323.045C312.461 323.578 311.364 324.617 310.203 325.559C309.595 326.435 308.792 327.391 308.319 328.336C307.804 328.307 306.733 328.099 306.276 328.222C305.055 328.549 302.855 330.637 301.885 331.513L296.433 336.855C295.617 337.671 294.746 338.789 293.739 339.346L293.034 338.429L292.033 339.634L290.625 339.718C283.476 336.445 277.982 331.02 272.294 325.734C274.916 323.548 278.292 322.27 281.162 320.411L303.698 304.716C310.266 299.72 316.625 293.9 322.312 287.914C324.928 285.16 327.309 281.881 330.059 279.317L330.45 278.961C333.429 274.997 336.716 271.303 339.492 267.181C344.83 259.257 347.764 250.531 351.187 241.707C351.727 240.315 351.363 240.052 350.817 238.732C355.068 234.01 357.831 226.312 360.695 220.585Z"/>
	<path fill="#FFB85D" transform="scale(0.666667 0.666667)" d="M293.034 338.429C293.348 337.882 293.84 337.464 294.188 336.941C296.924 332.817 301.391 328.351 305.417 325.467C307.279 324.133 308.174 323.251 310.521 323.642L310.518 324.15L310.203 325.559C309.595 326.435 308.792 327.391 308.319 328.336C307.804 328.307 306.733 328.099 306.276 328.222C305.055 328.549 302.855 330.637 301.885 331.513L296.433 336.855C295.617 337.671 294.746 338.789 293.739 339.346L293.034 338.429Z"/>
	<defs>
		<linearGradient id="gradient_1" gradientUnits="userSpaceOnUse" x1="280.672" y1="417.09799" x2="248.351" y2="362.42899">
			<stop offset="0" stop-color="#FEA328"/>
			<stop offset="1" stop-color="#FFC762"/>
		</linearGradient>
	</defs>
	<path fill="url(#gradient_1)" transform="scale(0.666667 0.666667)" d="M293.739 339.346C294.746 338.789 295.617 337.671 296.433 336.855L301.885 331.513C302.855 330.637 305.055 328.549 306.276 328.222C306.733 328.099 307.804 328.307 308.319 328.336C305.69 333.776 304.627 339.353 303.076 345.144C302.087 348.836 300.769 352.482 299.431 356.062C294.443 369.415 286.864 381.591 281.02 394.561L272.529 415.042C271.008 418.799 269.709 422.865 267.585 426.321C262.255 427.857 256.077 427.878 250.529 428.413L211.664 431.344L209.368 431.554C208.292 429.677 207.439 427.495 207.009 425.377L206.874 424.688C206.082 420.928 205.99 416.835 206.478 413.018C207.299 406.586 208.786 400.95 213.435 396.139C217.556 391.876 222.887 388.584 227.965 385.595L256.328 369.966C264.451 365.019 272.469 359.356 279.625 353.086C284.57 348.755 289.095 343.989 293.739 339.346Z"/>
	<path fill="#7A7D79" transform="scale(0.666667 0.666667)" d="M508.312 619.125C511.657 619.787 515.242 619.76 518.648 619.957L542.923 620.683C543.323 621.481 543.393 622.006 544.271 622.346C546.783 623.321 551.046 622.942 553.781 622.963L576.852 622.639C578.834 622.535 582.292 622.886 584.049 621.931L584.225 621.766C585.581 621.375 587.204 621.641 588.61 621.73L596.893 622.28C610.766 623.188 624.833 623.758 638.595 625.819C643.245 626.515 647.776 627.514 652.249 628.957C642.369 630.844 632.051 630.872 622.006 631.044L590.497 631.57L414.871 631.697L220.733 631.916L143.486 631.02L123.76 630.035C119.95 629.741 116.027 629.505 112.311 628.585C115.949 626.625 122.128 626.338 126.217 625.814L167.625 621.998C172.898 621.631 178.256 620.932 183.541 620.976L183.996 620.984C188.629 622.748 194.938 622.376 199.903 622.616L214.559 623.133C217.11 623.166 220.276 623.329 222.736 622.735C224.35 622.345 224.909 621.272 225.683 619.936L254.272 619.315L254.68 619.741C254.604 620.843 254.394 621.86 255 622.847C255.669 623.096 256.235 623.262 256.952 623.327C267.241 624.266 278.101 623.666 288.456 623.716L346.644 624.005L442.984 623.898L504.938 623.965C506.338 623.937 507.819 624 508.945 623.062C509.012 621.588 508.75 620.528 508.312 619.125Z"/>
	<path fill="#393E41" transform="scale(0.666667 0.666667)" d="M377.266 424.688L485.208 429.127L515.811 432.198C525.224 433.355 534.646 434.452 543.587 437.777C541.579 439.336 539.641 440.565 537.131 441.209C531.803 442.576 526.123 443.076 520.655 443.626L484.973 445.553L392.438 446.624L306.715 446.276C285.963 445.781 265.363 445.006 244.729 442.552C240.806 442.085 236.949 441.671 233.08 440.837C231.429 440.481 229.437 440.078 228.079 439.035C227.089 438.274 226.706 437.757 226.604 436.556C227.745 435.598 229.564 435.507 231 435.272L242.25 433.529L271.645 429.261C306.723 425.451 342.021 424.962 377.266 424.688Z"/>
	<path fill="#E94F37" transform="scale(0.666667 0.666667)" d="M410.004 192.439C412.843 192.905 415.651 193.92 418.413 194.728L431.414 198.575C477.847 213.364 519.233 242.211 547.747 281.902C561.13 300.53 572.709 320.954 580.259 342.667C586.525 360.683 589.939 379.96 591.083 398.969C591.745 409.96 591.352 421.137 590.815 432.125L569.397 431.672C565.809 431.634 559.452 432.342 556.178 430.897L557.643 425.685C560.114 413.672 557.193 401.917 551.04 391.51C543.702 379.1 531.273 369.316 520.984 359.425C515.575 354.225 510.508 348.607 505.545 342.983C498.606 335.122 491.834 326.937 485.786 318.366L465.135 288.039L452.653 271.969C448.719 267.215 444.25 262.354 440.89 257.177C440.628 256.221 439.073 254.546 438.467 253.679L432.573 244.857C430.731 239.616 429.993 233.979 428.359 228.659C425.457 219.215 420.724 210.082 415.67 201.618C413.83 198.536 412.075 195.372 410.004 192.439Z"/>
	<path fill="#393E41" transform="scale(0.666667 0.666667)" d="M546.755 447.464C543.475 451.149 540.79 455.742 538.583 460.15L550.767 459.699C553.287 459.623 556.49 459.716 558.873 458.835C563.401 457.16 568.022 452.958 571.933 450.059L592.31 434.959L637.651 404.028C639.162 403.086 643.418 399.951 645.197 399.984C645.637 399.992 647.386 401.464 647.734 401.787C648.838 402.812 649.587 403.85 650.26 405.188C650.036 407.116 648.304 408.594 646.859 409.726C638.993 415.884 630.295 421.368 621.977 426.918L599.029 442.766L579.473 456.739C573.813 460.855 567.877 466.514 561.24 468.909C553.888 471.561 544.304 470.587 536.533 470.536C536.15 470.533 535.716 470.335 535.384 470.528C534.842 470.842 532.903 474.931 532.612 475.736C524.425 490.013 521.276 501.094 503.812 505.849C486.49 510.565 468.051 511.771 450.188 512.621L390.374 513.938L336.681 513.86C320.469 513.6 304.016 513.113 287.924 511.018C276.71 509.558 263.25 507.236 253.385 501.455C245.583 496.882 241.459 489.242 236.665 481.913C234.81 479.067 233.154 476.246 232.262 472.948L231.723 470.866C231.696 470.756 231.744 470.586 231.642 470.537C230.975 470.219 227.527 470.615 226.628 470.627C219.51 470.725 211.047 471.443 204.278 468.906C201.76 467.962 199.41 466.617 197.163 465.153L180.62 453.267L158.062 437.562L130.875 419.252C127.248 416.764 123.059 414.372 119.814 411.416C118.782 410.475 117.853 409.654 117.758 408.188C118.144 407.242 118.51 406.567 119.235 405.833C120.029 405.029 122.122 403.334 123.303 403.498C124.992 403.732 127.553 405.683 128.989 406.604L159.93 426.934L189.313 448.166L200.099 456.065C201.661 457.18 203.46 458.705 205.309 459.283C207.635 460.01 210.957 459.643 213.425 459.671L229.237 459.845L221.694 445.784C221.227 445.413 221.269 445.422 220.719 445.095C218.986 444.066 216.972 444.218 215.13 444.758C214.494 444.944 214.301 444.992 213.605 444.972C213.432 443.271 212.838 440.767 213.47 439.175C216.059 442.2 219.162 442.924 222.685 444.444C233.72 448.592 246.623 450.412 258.315 451.679C290.227 455.137 322.713 455.739 354.79 456.109L455.812 455.383L503.812 452.803C513.242 452.062 522.628 451.118 531.938 449.395C536.443 448.561 541.123 447.668 545.428 446.068C546.755 445.205 548.082 444.308 549.469 443.545C550.594 442.926 552.75 442.127 553.409 440.98C553.787 440.321 553.988 439.184 554.229 438.436C555.31 440.019 554.628 442.75 554.306 444.595L553.682 444.692C550.99 445.122 549.053 445.987 546.755 447.464Z"/>
	<path fill="#E94F37" transform="scale(0.666667 0.666667)" d="M209.368 431.554L173.27 431.597C173.232 416.764 172.701 402.061 173.728 387.231C175.193 366.069 180.852 343.849 189.861 324.613C195.679 312.19 202.202 299.654 209.842 288.254C222.643 269.154 238.579 252.475 256.429 238.075C265.999 230.355 275.973 223.189 286.715 217.175C297.575 211.094 309.092 206.084 320.786 201.868C335.226 196.662 350.625 192.711 366.008 192.156C367.842 192.09 370.725 191.675 372.352 192.438C367.318 201.292 365.118 211.497 360.695 220.585C357.831 226.312 355.068 234.01 350.817 238.732C351.363 240.052 351.727 240.315 351.187 241.707C347.764 250.531 344.83 259.257 339.492 267.181C336.716 271.303 333.429 274.997 330.45 278.961L330.059 279.317C327.309 281.881 324.928 285.16 322.312 287.914C316.625 293.9 310.266 299.72 303.698 304.716L281.162 320.411C278.292 322.27 274.916 323.548 272.294 325.734C277.982 331.02 283.476 336.445 290.625 339.718L292.033 339.634L293.034 338.429L293.739 339.346C289.095 343.989 284.57 348.755 279.625 353.086C272.469 359.356 264.451 365.019 256.328 369.966L227.965 385.595C222.887 388.584 217.556 391.876 213.435 396.139C208.786 400.95 207.299 406.586 206.478 413.018C205.99 416.835 206.082 420.928 206.874 424.688L207.009 425.377C207.439 427.495 208.292 429.677 209.368 431.554Z"/>
	<path fill="#FC8F4C" transform="scale(0.666667 0.666667)" d="M350.817 238.732C351.363 240.052 351.727 240.315 351.187 241.707C347.764 250.531 344.83 259.257 339.492 267.181C336.716 271.303 333.429 274.997 330.45 278.961L330.059 279.317C327.309 281.881 324.928 285.16 322.312 287.914C316.625 293.9 310.266 299.72 303.698 304.716L281.162 320.411C278.292 322.27 274.916 323.548 272.294 325.734C270.791 324.967 269.198 322.829 268.113 321.577L258.433 309.46C259.911 307.928 262.709 306.962 264.576 305.835C269.091 303.109 273.721 300.309 277.909 297.101C281.029 294.711 284.045 292.093 286.612 289.106C291.483 283.441 295.467 277.475 301.401 272.789C309.118 266.694 318.022 262.292 326.471 257.349C335.309 252.18 343.815 246.236 350.817 238.732Z"/>
	<path fill="#393E41" transform="scale(0.666667 0.666667)" d="M530.367 518.287L542.891 518.512C544.835 516.466 550.193 516.371 553.003 516.305C554.886 516.261 557.395 516.012 558.878 517.359C559.925 518.311 560.303 519.463 560.287 520.861C560.27 522.393 559.681 523.698 558.579 524.76C556.343 526.917 552.62 526.823 549.686 526.921L549.499 527.31C547.042 532.35 542.494 537.901 541.633 543.474L584.225 621.766L584.049 621.931C582.292 622.886 578.834 622.535 576.852 622.639L553.781 622.963C551.046 622.942 546.783 623.321 544.271 622.346C543.393 622.006 543.323 621.481 542.923 620.683L518.648 619.957C515.242 619.76 511.657 619.787 508.312 619.125C508.75 620.528 509.012 621.588 508.945 623.062C507.819 624 506.338 623.937 504.938 623.965L442.984 623.898L346.644 624.005L288.456 623.716C278.101 623.666 267.241 624.266 256.952 623.327C256.235 623.262 255.669 623.096 255 622.847C254.394 621.86 254.604 620.843 254.68 619.741L254.272 619.315L225.683 619.936C224.909 621.272 224.35 622.345 222.736 622.735C220.276 623.329 217.11 623.166 214.559 623.133L199.903 622.616C194.938 622.376 188.629 622.748 183.996 620.984L225.229 542.141C224.408 540.171 223.599 538.158 222.462 536.344C220.529 533.26 218.066 530.593 216.22 527.428L215.926 526.918L214.604 526.926C212.034 526.917 209.931 526.557 208.096 524.59C206.978 523.392 206.51 521.866 206.641 520.237C206.74 519.007 207.155 517.903 208.156 517.124C210 515.69 216.807 516.273 219.203 516.605L219.75 516.689C221.136 516.876 222.002 517.5 223.116 518.28C224.473 519.231 235.916 518.472 238.519 518.345L530.367 518.287Z"/>
	<path fill="#7A7D79" transform="scale(0.666667 0.666667)" d="M399.401 527.229L315.435 526.092C306.331 525.596 297.236 525.345 288.188 524.116L288 523.659L401.86 525.734C403.871 525.289 406.085 525.441 408.143 525.415L418.314 525.284L450.873 524.535L461.31 524.162C462.527 524.122 464.429 523.791 465.562 524.119C462.779 525.843 405.711 527.982 399.401 527.229Z"/>
	<path fill="#F6F7EB" transform="scale(0.666667 0.666667)" d="M228.836 607.496L258.571 549.798L277.715 550.941L258.73 607.483L237.483 607.757C234.919 607.794 231.143 608.388 228.836 607.496Z"/>
	<path fill="#F6F7EB" transform="scale(0.666667 0.666667)" d="M505.089 608.35L485.963 551.483L506.411 550.418L529.517 588.375L535.874 599.162C537.423 601.846 539.07 604.487 540.024 607.454L517.886 607.735C513.867 607.787 508.921 607.3 505.089 608.35Z"/>
	<path fill="#F6F7EB" transform="scale(0.666667 0.666667)" d="M347.305 552.564L446.59 552.554L466.469 597.023L416.776 597.093L297.729 596.608L316.35 552.699L347.305 552.564Z"/>
</svg>
