<?xml version="1.0" encoding="utf-8" ?>
<svg xmlns="http://www.w3.org/2000/svg" xmlns:xlink="http://www.w3.org/1999/xlink" width="512" height="512">
	<path fill="#F6F7EB" transform="scale(0.666667 0.666667)" d="M-0 -0L768 0L768 768L-0 768L0 -0Z"/>
	<path fill="#A4B1B1" transform="scale(0.666667 0.666667)" d="M325.984 470.605C328.939 468.249 352.57 451.326 354.633 451.2C353.378 453.366 352.211 455.782 350.754 457.806C350.568 461.037 348.456 464.395 347.17 467.341C344.239 474.055 341.093 480.547 336.932 486.601C330.488 495.98 321.704 504.617 313.21 512.181L285 537.785C276.828 545.384 267.687 553.415 261.326 562.637C255.337 571.319 254.528 582.073 251.316 591.92C248.91 599.294 244.892 606.687 241.091 613.41C236.714 621.153 231.964 630.24 224.291 635.211C219.086 638.583 213.293 639.394 207.22 638.997C195.472 638.231 180.245 633.402 172.325 624.244C166.018 616.953 162.779 608.571 163.481 598.887C164.441 585.638 176.339 574.278 184.785 564.924C186.895 562.588 189.898 559.981 191.363 557.209C192.28 554.932 194.579 552.672 196.24 550.882L235.593 510.953L256.029 489.905C260.558 485.18 264.875 480.249 269.66 475.776L270.75 476.456C276.572 475.909 284.459 474.329 289.61 471.499C293.055 470.307 296.047 468.036 299.409 466.924C300.871 466.441 302.604 466.522 304.128 466.563C309.151 466.698 315.018 467.673 319.824 469.044C322.039 469.675 324.048 469.197 325.984 470.605Z"/>
	<path fill="#393E41" transform="scale(0.666667 0.666667)" d="M325.984 470.605C328.939 468.249 352.57 451.326 354.633 451.2C353.378 453.366 352.211 455.782 350.754 457.806C339.426 470.97 326.601 483.175 314.281 495.422L269.566 540.204L215.161 594.145C208.472 600.723 202.151 608.013 195.176 614.242C193.779 615.49 191.717 617.223 189.75 617.25C188.5 617.267 187.386 616.574 186.646 615.583C185.884 614.563 185.345 612.907 185.682 611.649C186.911 607.052 202.095 592.995 206.152 588.798L245.559 548.555L271.636 523.201C289.501 505.583 306.461 486.416 325.984 470.605Z"/>
	<path fill="#B73F3D" transform="scale(0.666667 0.666667)" d="M285.011 610.352C281.048 609.059 277.261 607.277 273.45 605.6L258.355 598.57L272.739 584.676L335.611 524.795C385.528 479.79 437.302 436.562 480.039 384.375C489.12 373.286 498.122 361.814 506.118 349.916C518.616 331.316 529.249 311.422 539.07 291.31L553.912 260.177C559.228 247.521 563.121 234.455 566.501 221.169C569.51 223.329 572.227 226.297 574.781 228.976C580.433 234.905 585.525 241.198 590.363 247.802C589.107 253.993 585.902 260.092 583.349 265.854L563.198 307.246C547.968 335.938 533.327 365.324 514.094 391.627C504.435 404.837 493.999 417.777 482.934 429.841L455.569 457.831L402.648 508.459L387.002 522.052L345.616 558.611L320.625 581.212L285.011 610.352Z"/>
	<path fill="#D2D5D3" transform="scale(0.666667 0.666667)" d="M524.013 155.008C533.034 149.645 544.225 145.859 554.349 143.097C564.682 140.277 575.892 136.92 586.662 137.299L583.982 138.978C579.059 141.891 574.606 147.563 571.32 152.196C566.583 158.878 562.559 166.437 558.638 173.627L548.459 191.466L532.854 218.153L523.43 233.468C521.56 236.836 519.141 240.125 517.045 243.375L506.799 259.253L494.062 277.475L462.463 322.591L449.588 341.379L404.751 399.194L382.454 424.688C378.305 429.067 374.203 433.647 369.654 437.625L354.633 451.2C352.57 451.326 328.939 468.249 325.984 470.605C324.048 469.197 322.039 469.675 319.824 469.044C315.018 467.673 309.151 466.698 304.128 466.563C302.604 466.522 300.871 466.441 299.409 466.924C296.047 468.036 293.055 470.307 289.61 471.499C284.459 474.329 276.572 475.909 270.75 476.456L269.66 475.776C276.043 469.388 282.029 462.842 287.481 455.629C296.9 443.167 304.743 429.381 312.522 415.86L336.132 374.777L386.645 295.125L402.089 274.342L429.645 237.925C444.481 219.704 460.564 202.481 477.974 186.717C485.92 179.522 494.572 171.671 503.603 165.841C505.409 165.859 509.977 162.023 511.854 160.976C515.766 158.794 519.992 157.003 524.013 155.008Z"/>
	<path fill="#BDC4C2" transform="scale(0.666667 0.666667)" d="M524.013 155.008L524.906 155.438C524.218 157.005 522.812 158.155 521.711 159.445L517.416 164.817L506.492 179.949L473.974 230.787L459.089 251.049L421.38 304.555L400.688 332.998L343.665 410.745L327.268 433.202C323.039 438.777 318.12 444.07 313.424 449.26C308.454 454.752 303.414 460.424 297.886 465.354C295.262 467.695 292.018 469.003 289.352 471.165L289.61 471.499C284.459 474.329 276.572 475.909 270.75 476.456L269.66 475.776C276.043 469.388 282.029 462.842 287.481 455.629C296.9 443.167 304.743 429.381 312.522 415.86L336.132 374.777L386.645 295.125L402.089 274.342L429.645 237.925C444.481 219.704 460.564 202.481 477.974 186.717C485.92 179.522 494.572 171.671 503.603 165.841C505.409 165.859 509.977 162.023 511.854 160.976C515.766 158.794 519.992 157.003 524.013 155.008Z"/>
	<path fill="#E94F37" transform="scale(0.666667 0.666667)" d="M590.363 247.802C625.213 296.324 646.98 358.004 637.189 418.113C628.497 471.476 603.568 520.169 565.159 558.188C556.98 566.283 548.37 574.129 539 580.836C518.358 595.614 495.384 607.901 471.188 615.709C464.677 617.81 458.008 619.311 451.336 620.79C424.071 626.834 396.483 628.396 368.644 626.748C357.861 626.11 347.244 625.271 336.576 623.476C318.984 620.515 301.794 616.452 285.011 610.352L320.625 581.212L345.616 558.611L387.002 522.052L402.648 508.459L455.569 457.831L482.934 429.841C493.999 417.777 504.435 404.837 514.094 391.627C533.327 365.324 547.968 335.938 563.198 307.246L583.349 265.854C585.902 260.092 589.107 253.993 590.363 247.802Z"/>
	<path fill="#E94F37" transform="scale(0.666667 0.666667)" d="M191.363 557.209C186.139 552.191 182.019 546.576 177.787 540.732C164.838 522.854 153.94 502.931 146.406 482.157C129.005 434.175 125.708 379.349 138.499 329.815C142.56 314.087 148.398 298.839 155.277 284.144C164.206 265.071 175.754 247 188.915 230.589C193.662 224.67 198.458 218.757 203.771 213.33C228.664 187.901 261.167 167.313 294.622 155.244C353.886 133.864 419.974 135.966 479.171 156.561C487.472 159.449 495.625 162.094 503.603 165.841C494.572 171.671 485.92 179.522 477.974 186.717C460.564 202.481 444.481 219.704 429.645 237.925L402.089 274.342L386.645 295.125L336.132 374.777L312.522 415.86C304.743 429.381 296.9 443.167 287.481 455.629C282.029 462.842 276.043 469.388 269.66 475.776C264.875 480.249 260.558 485.18 256.029 489.905L235.593 510.953L196.24 550.882C194.579 552.672 192.28 554.932 191.363 557.209Z"/>
</svg>
