<?xml version="1.0" encoding="utf-8" ?>
<svg xmlns="http://www.w3.org/2000/svg" xmlns:xlink="http://www.w3.org/1999/xlink" width="512" height="512">
	<path fill="#F6F7EB" transform="scale(0.666667 0.666667)" d="M-0 -0L768 0L768 768L-0 768L0 -0Z"/>
	<path fill="#DA211B" transform="scale(0.666667 0.666667)" d="M465.797 127.956L469.084 121.928C473.142 130.91 476.228 142.929 474.308 152.776C471.069 153.001 467.727 153.227 464.518 152.599L465.696 152.062C466.418 147.749 466.042 142.838 465.96 138.464C465.894 134.981 466.065 131.421 465.797 127.956Z"/>
	<path fill="#E94F37" transform="scale(0.666667 0.666667)" d="M465.797 127.956C466.065 131.421 465.894 134.981 465.96 138.464C466.042 142.838 466.418 147.749 465.696 152.062L464.518 152.599L449.586 153.67L439.875 154.996C437.187 155.421 434.902 156.031 432.169 155.573C445.269 148.397 456.87 140.068 465.797 127.956Z"/>
	<path fill="#E94F37" transform="scale(0.666667 0.666667)" d="M295.971 154.785C292.585 145.347 294.196 134.081 298.147 125.004C299.857 129.497 302.705 132.74 306.105 136.071C313.963 143.768 323.652 149.492 333.398 154.447C330.168 155.114 326.858 154.408 323.605 154.196L302.395 153.491C301.075 153.491 298.793 153.19 297.562 153.506C297.112 153.622 296.749 153.959 296.342 154.185L295.971 154.785Z"/>
	<path fill="#DA211B" transform="scale(0.666667 0.666667)" d="M295.971 154.785L296.342 154.185C296.749 153.959 297.112 153.622 297.562 153.506C298.793 153.19 301.075 153.491 302.395 153.491L323.605 154.196C326.858 154.408 330.168 155.114 333.398 154.447C348.345 160.347 363.541 164.432 379.741 164.026C379.292 166.554 378.722 168.936 377.553 171.242C376.24 170.754 374.124 170.724 372.688 170.533L358.57 168.869L313.702 162.72L303.974 161.985C301.854 161.863 299.883 161.999 297.835 161.321L295.971 154.785Z"/>
	<path fill="#E94F37" transform="scale(0.666667 0.666667)" d="M297.835 161.321C299.883 161.999 301.854 161.863 303.974 161.985L313.702 162.72L358.57 168.869L372.688 170.533C374.124 170.724 376.24 170.754 377.553 171.242C377.339 172.421 377.201 173.06 377.861 174.126C378.398 174.993 379.142 175.452 380.112 175.698L380.654 175.55C381.226 175.687 382.321 175.752 382.635 176.264C383.32 177.383 383.209 179.262 383.236 180.552C383.3 183.69 383.104 186.984 383.38 190.098C378.695 190.273 373.834 189.437 369.188 188.833L349.293 186.047C335.496 183.91 321.396 182.353 307.94 178.514C304.722 177.596 301.735 176.325 298.854 174.638C299.088 170.211 298.467 165.694 297.835 161.321Z"/>
	<path fill="#E94F37" transform="scale(0.666667 0.666667)" d="M373.698 79.2899L406.92 79.5703C414.398 80.0094 422.087 80.5092 429.409 82.1605C442.916 85.2069 456.52 92.2728 465.597 102.895C469.66 107.649 471.947 113.638 476.082 118.226L476.363 118.531L474.938 118.836C472.692 119.341 470.702 120.702 468.724 121.841L466.825 115.312C464.272 109.216 457.914 105.412 452.286 102.553C435.376 93.9614 416.835 90.6104 398.057 89.3394C374.46 88.6537 352.238 90.1868 329.69 97.6435C321.59 100.322 310.489 104.968 305.098 111.886C302.956 114.636 301.488 118.058 299.924 121.161C299.41 121.108 299.647 121.18 299.111 120.874L294.332 118.532L294.502 117.923C295.159 116.407 296.383 114.87 297.193 113.393C303.894 101.17 313.073 91.922 326.047 86.5339C340.748 80.4284 357.997 79.8308 373.698 79.2899Z"/>
	<path fill="#C51214" transform="scale(0.666667 0.666667)" d="M432.169 155.573C434.902 156.031 437.187 155.421 439.875 154.996L449.586 153.67L464.518 152.599C467.727 153.227 471.069 153.001 474.308 152.776C472.294 160.281 468.636 167.3 471.268 175.232C467.687 182.005 461.37 185.324 454.312 187.526C445.726 190.204 436.504 191.664 427.649 193.222C415.341 195.387 403.251 197.451 390.755 198.176L391.036 189.04L391.387 174.908C393.01 174.871 394.447 175.018 395.812 174.016C396.199 172.975 395.825 172.116 395.533 171.1C394.109 169.049 393.605 166.326 393.077 163.923C407.018 163.933 419.328 160.718 432.169 155.573Z"/>
	<path fill="#E94F37" transform="scale(0.666667 0.666667)" d="M395.533 171.1C402.691 170.852 409.777 169.643 416.849 168.559L453.01 163.344C457.856 162.863 463.025 162.151 467.895 162.559C467.903 164.626 468.532 169.047 467.118 170.506C465.057 172.632 462.52 173.917 459.919 175.269C446.711 182.132 431.192 183.263 416.716 185.658C408.768 186.974 400.053 189.066 392.006 189.06L391.036 189.04L391.387 174.908C393.01 174.871 394.447 175.018 395.812 174.016C396.199 172.975 395.825 172.116 395.533 171.1Z"/>
	<path fill="#393E41" transform="scale(0.666667 0.666667)" d="M375.568 97.2823L375.612 97.2732C398.208 96.2187 419.674 98.4084 441.01 106.296C447.285 108.617 453.536 111.184 459.059 115.004C456.791 119.176 454.366 123.447 450.933 126.784C446.59 131.007 440.83 133.793 435.347 136.206C424.293 141.07 412.927 144.265 401.334 147.532C398.559 148.314 392.8 149.224 390.719 150.935L390.292 151.312L389.804 154.471C388.031 154.484 384.423 154.902 382.939 154.116L382.204 151.315C366.845 146.658 351.168 143.914 336.209 137.808C324.498 133.028 314.689 127.652 309.604 115.539C315.218 111.221 321.414 108.776 328.043 106.445C343.491 101.013 359.264 98.3694 375.568 97.2823Z"/>
	<path fill="#E94F37" transform="scale(0.666667 0.666667)" d="M471.268 175.232L471.445 175.575C473.474 179.38 477.454 181.891 480.963 184.211C485.174 186.994 489.67 189.801 492.484 194.117C496.066 199.611 496.268 207.416 496.845 213.775C497.429 220.206 498.001 226.847 498.029 233.303L497.733 246.636C497.461 250.944 497.188 255.224 496.572 259.5C496.428 260.498 496.379 262.276 495.944 263.14C495.51 265.727 495.224 268.62 494.394 271.111L476.008 271.185C473.306 270.877 470.204 271.181 467.468 271.183L449.456 271.163L389.919 270.734L390.042 262.96L390.248 243.586L390.562 231.861L390.755 198.176C403.251 197.451 415.341 195.387 427.649 193.222C436.504 191.664 445.726 190.204 454.312 187.526C461.37 185.324 467.687 182.005 471.268 175.232Z"/>
	<path fill="#DA211B" transform="scale(0.666667 0.666667)" d="M390.248 243.586L390.562 231.861C390.647 232.703 390.537 233.919 391.125 234.524L459.546 234.328L482.895 234.222C487.276 234.191 492.818 234.821 496.875 233.441L498.029 233.303L497.733 246.636C497.455 246.099 497.564 246.378 497.386 245.645L497.25 245.062L496.519 245.104C495.566 244.446 494.393 244.654 493.282 244.648L482.188 244.583L390.248 243.586Z"/>
	<path fill="#E94F37" transform="scale(0.666667 0.666667)" d="M390.248 243.586L482.188 244.583L493.282 244.648C494.393 244.654 495.566 244.446 496.519 245.104L497.25 245.062L497.386 245.645C497.564 246.378 497.455 246.099 497.733 246.636C497.461 250.944 497.188 255.224 496.572 259.5C496.428 260.498 496.379 262.276 495.944 263.14C495.51 265.727 495.224 268.62 494.394 271.111L476.008 271.185C473.306 270.877 470.204 271.181 467.468 271.183L449.456 271.163L389.919 270.734L390.042 262.96L390.248 243.586Z"/>
	<path fill="#DA211B" transform="scale(0.666667 0.666667)" d="M390.042 262.96C392.578 263.895 396.811 263.276 399.591 263.264L421.162 263.175L494.438 262.765L495.188 262.332L495.619 262.828L495.944 263.14C495.51 265.727 495.224 268.62 494.394 271.111L476.008 271.185C473.306 270.877 470.204 271.181 467.468 271.183L449.456 271.163L389.919 270.734L390.042 262.96Z"/>
	<path fill="#E94F37" transform="scale(0.666667 0.666667)" d="M389.919 270.734L449.456 271.163L467.468 271.183C470.204 271.181 473.306 270.877 476.008 271.185L494.394 271.111C494.243 275.499 495.221 279.725 495.74 284.062C496.442 289.928 496.478 295.604 495.933 301.478C495.771 303.221 494.441 310.258 495.168 311.466C498.684 317.311 498.839 327.271 497.589 333.786C496.944 337.145 495.751 340.426 495.402 343.831C494.819 349.515 495.434 355.484 496.322 361.108C495.196 362.345 495.061 362.455 493.312 362.517L389.427 363.126L389.674 319.488L389.919 270.734Z"/>
	<path fill="#C51214" transform="scale(0.666667 0.666667)" d="M388.959 567.004C390.435 567.716 446.385 567.021 452.552 566.711C458.986 566.388 465.386 565.756 471.743 564.713C474.935 564.189 484.976 561.291 487.436 562.911L487.155 563.262C485.113 565.914 484.851 569.413 485.235 572.667C485.539 575.25 487.616 577.309 487.827 579.837C488.091 583.022 487.72 586.482 487.417 589.659C486.534 598.938 484.349 607.97 481.855 616.929C479.869 624.066 477.891 631.122 474.944 637.941C472.371 643.894 469.2 649.69 465.364 654.927C455.806 667.971 442.034 676.7 426 679.144L388.38 681.824L388.459 655.407L388.545 655.138L388.726 616.828C388.498 614.308 388.792 611.551 388.863 609.011L388.886 576.377L388.959 567.004Z"/>
	<path fill="#E94F37" transform="scale(0.666667 0.666667)" d="M388.726 616.828L430.081 616.809L461.192 616.489C466.035 616.239 470.722 615.19 475.505 614.839C473.317 621.448 470.641 630.722 465.4 635.655C463.097 637.822 460.314 639.327 457.509 640.732C443.669 647.664 427.616 650.246 412.466 652.621C404.659 653.845 396.469 655.225 388.545 655.138L388.726 616.828Z"/>
	<path fill="#E94F37" transform="scale(0.666667 0.666667)" d="M388.886 576.377L445.637 576.372L473.062 576.15C473.866 576.173 474.705 576.069 475.289 576.662C477.287 578.694 478.469 580.955 479.26 583.688L479.395 584.137C480.742 588.902 478.544 595.747 477.644 600.556C477.29 602.443 477.021 605.654 476.066 607.315L475.754 607.668L388.863 609.011L388.886 576.377Z"/>
	<path fill="#E94F37" transform="scale(0.666667 0.666667)" d="M389.427 363.126L493.312 362.517C495.061 362.455 495.196 362.345 496.322 361.108C496.787 365.7 497.323 370.519 496.83 375.121C496.417 383.191 492.65 391.504 494.29 399.523C495.089 403.073 495.918 406.556 496.051 410.205C496.374 419.072 495.427 427.992 495.18 436.858C495.08 440.445 494.422 445.009 495.686 448.387C496.775 450.742 497.18 455.374 496.143 457.812C496.003 458.142 495.895 458.269 495.686 458.585C494.98 457.416 494.966 456.924 493.543 456.587C490.643 455.901 487.458 456.069 484.491 456.042L469.688 455.977L419.273 455.994L398.68 455.969C395.883 455.966 392.42 455.571 389.723 456.087L389.486 459.831L389.491 435.193L389.584 401.903L389.441 370.939L389.427 363.126Z"/>
	<path fill="#DA211B" transform="scale(0.666667 0.666667)" d="M389.486 459.831L389.491 435.193L389.473 448.469L495.686 448.387C496.775 450.742 497.18 455.374 496.143 457.812C496.003 458.142 495.895 458.269 495.686 458.585C494.98 457.416 494.966 456.924 493.543 456.587C490.643 455.901 487.458 456.069 484.491 456.042L469.688 455.977L419.273 455.994L398.68 455.969C395.883 455.966 392.42 455.571 389.723 456.087L389.486 459.831Z"/>
	<path fill="#DA211B" transform="scale(0.666667 0.666667)" d="M389.427 363.126L493.312 362.517C495.061 362.455 495.196 362.345 496.322 361.108C496.787 365.7 497.323 370.519 496.83 375.121L496.376 375.22C495.884 374.643 495.932 372.172 495.854 371.31L389.441 370.939L389.427 363.126Z"/>
	<path fill="#E94F37" transform="scale(0.666667 0.666667)" d="M389.486 459.831L389.723 456.087C392.42 455.571 395.883 455.966 398.68 455.969L419.273 455.994L469.688 455.977L484.491 456.042C487.458 456.069 490.643 455.901 493.543 456.587C494.966 456.924 494.98 457.416 495.686 458.585C494.506 460.084 494.068 460.39 494.337 462.375C494.631 464.536 495.476 466.346 495.426 468.59C496.012 472.8 495.795 477.361 495.582 481.599C495.48 483.642 495.525 486.026 495.05 488.002L493.199 520.844C493.156 522.044 493.395 527.186 492.883 527.977L491.659 550.442C491.459 553.14 491.574 556.467 490.821 559.063C490.514 560.119 489.799 560.877 489.025 561.625C488.523 562.111 488.012 562.518 487.436 562.911C484.976 561.291 474.935 564.189 471.743 564.713C465.386 565.756 458.986 566.388 452.552 566.711C446.385 567.021 390.435 567.716 388.959 567.004L389.289 529.158L389.513 484.6L389.534 473.293L389.486 459.831Z"/>
	<path fill="#E94F37" transform="scale(0.666667 0.666667)" d="M380.654 175.55L382.401 173.812C383.619 170.035 383.609 166.624 383.542 162.688L389.203 162.662C389.23 167.072 390.063 170.709 391.387 174.908L391.036 189.04L390.755 198.176L390.562 231.861L390.248 243.586L390.042 262.96L389.919 270.734L389.674 319.488L389.427 363.126L389.441 370.939L389.584 401.903L389.491 435.193L389.486 459.831L389.534 473.293L389.513 484.6L389.289 529.158L388.959 567.004L388.886 576.377L388.863 609.011C388.792 611.551 388.498 614.308 388.726 616.828L388.545 655.138L388.459 655.407L388.38 681.824L381.477 681.886L342.82 679.175C325.674 676.329 312.362 667.719 302.316 653.554C297.758 647.128 294.658 639.617 292.061 632.222C287.836 620.19 285.135 608.264 283.118 595.693C282.271 590.422 281.227 585.085 281.489 579.72C281.629 576.841 283.281 574.196 283.726 571.299C284.381 567.043 281.67 564.303 279.369 561.091C276.993 558.241 276.505 534.072 276.266 528.55L273.171 485.707L272.577 473.302C272.563 471.835 272.511 470.311 272.7 468.855C272.982 466.681 273.519 464.485 273.917 462.326C273.961 462.089 274.271 460.928 274.214 460.718C273.941 459.71 272.395 457.998 271.833 456.906L271.668 456.58C271.534 453.7 271.316 451.223 272.444 448.498C274.176 444.898 273.873 441.482 273.787 437.584C273.633 430.624 272.698 423.597 272.193 416.644C271.978 413.677 271.618 410.746 271.836 407.767C272.016 405.31 272.76 402.925 273.447 400.572C273.888 399.167 274.455 397.645 274.601 396.178C275.088 391.313 273.175 385.72 272.302 380.914C271.683 377.51 271.477 374.247 271.435 370.796L272.088 361.585C273.033 355.752 274.465 349.667 273.674 343.753C272.92 338.116 270.575 332.876 270.896 327.089C271.088 323.635 271.358 319.995 272.083 316.61C272.576 314.31 274.193 311.427 274.188 309.188C274.183 306.79 273.623 304.217 273.364 301.815C272.858 297.114 272.533 292.342 272.918 287.62C273.383 281.932 275.978 276.439 275.401 270.73L273.869 263.192C272.292 256.123 271.857 248.066 271.862 240.836C271.863 238.63 271.688 236.14 272.256 234.005C271.925 230.482 272.726 226.438 273.059 222.891C273.562 217.541 273.819 212.175 274.624 206.855C276.574 193.975 283.371 191.615 292.897 184.57C295.098 182.217 297.186 179.97 298.685 177.09L298.854 174.638C301.735 176.325 304.722 177.596 307.94 178.514C321.396 182.353 335.496 183.91 349.293 186.047L369.188 188.833C373.834 189.437 378.695 190.273 383.38 190.098C383.104 186.984 383.3 183.69 383.236 180.552C383.209 179.262 383.32 177.383 382.635 176.264C382.321 175.752 381.226 175.687 380.654 175.55Z"/>
	<path fill="#FF8346" transform="scale(0.666667 0.666667)" d="M272.577 473.302C274.186 474.188 276.808 473.783 278.661 473.765L292.624 473.576C293.112 476.995 292.841 480.666 292.825 484.121L279.256 484.07C277.984 484.076 274.373 483.683 273.522 484.5L273.171 485.707L272.577 473.302Z"/>
	<path fill="#DA211B" transform="scale(0.666667 0.666667)" d="M293.164 448.591L383.062 448.635L382.865 456.043L293.238 455.629C292.714 453.631 292.82 450.621 293.164 448.591Z"/>
	<path fill="#DA211B" transform="scale(0.666667 0.666667)" d="M298.854 174.638C301.735 176.325 304.722 177.596 307.94 178.514C321.396 182.353 335.496 183.91 349.293 186.047L369.188 188.833C373.834 189.437 378.695 190.273 383.38 190.098L383.428 198.896C371.627 198.576 360.537 196.58 348.971 194.567L327.748 191.13C320.717 189.94 310.928 188.97 305.157 184.504C302.524 182.467 300.593 179.778 298.685 177.09L298.854 174.638Z"/>
	<path fill="#FF8346" transform="scale(0.666667 0.666667)" d="M292.897 184.57L292.489 234.057L272.256 234.005C271.925 230.482 272.726 226.438 273.059 222.891C273.562 217.541 273.819 212.175 274.624 206.855C276.574 193.975 283.371 191.615 292.897 184.57Z"/>
	<path fill="#393E41" transform="scale(0.666667 0.666667)" d="M380.654 175.55L382.401 173.812C383.619 170.035 383.609 166.624 383.542 162.688L389.203 162.662C389.23 167.072 390.063 170.709 391.387 174.908L391.036 189.04L390.755 198.176L390.562 231.861L390.248 243.586L390.042 262.96L389.919 270.734L389.674 319.488L389.427 363.126L389.441 370.939L389.584 401.903L389.491 435.193L389.486 459.831L389.534 473.293L389.513 484.6L389.289 529.158L388.959 567.004L388.886 576.377L388.863 609.011C388.792 611.551 388.498 614.308 388.726 616.828L388.545 655.138L388.459 655.407L388.38 681.824L381.477 681.886L381.484 655.123L381.638 655.071L382.106 616.702L382.197 608.984L382.39 576.762L382.499 567.067L382.68 529.429L382.619 484.247L382.619 474.207L382.865 456.043L383.062 448.635L382.971 393.304L383.237 371.241L383.256 362.196L382.923 298.439C383.398 296.076 382.957 292.646 382.945 290.172L383.021 271.794C383.421 268.936 383.201 265.776 383.24 262.877L383.326 243.882L383.355 233.966L383.428 198.896L383.38 190.098C383.104 186.984 383.3 183.69 383.236 180.552C383.209 179.262 383.32 177.383 382.635 176.264C382.321 175.752 381.226 175.687 380.654 175.55Z"/>
	<path fill="#C51214" transform="scale(0.666667 0.666667)" d="M279.369 561.091C283.351 560.628 289.034 562.339 292.868 563.486C297.624 564.998 302.922 565.461 307.875 565.938C322.44 567.341 337.076 567.036 351.69 567.051L382.499 567.067L382.39 576.762L382.197 608.984L382.106 616.702L381.638 655.071L381.484 655.123L381.477 681.886L342.82 679.175C325.674 676.329 312.362 667.719 302.316 653.554C297.758 647.128 294.658 639.617 292.061 632.222C287.836 620.19 285.135 608.264 283.118 595.693C282.271 590.422 281.227 585.085 281.489 579.72C281.629 576.841 283.281 574.196 283.726 571.299C284.381 567.043 281.67 564.303 279.369 561.091Z"/>
	<path fill="#E94F37" transform="scale(0.666667 0.666667)" d="M381.484 655.123C360.028 655.106 338.941 652.783 318.805 644.86C314.355 643.109 309.484 640.681 306.032 637.312C299.81 631.242 296.394 621.885 292.975 614.068C297.512 616.161 303.151 616.424 308.085 616.643L332.585 616.832L365.567 616.815L382.106 616.702L381.638 655.071L381.484 655.123Z"/>
	<path fill="#E94F37" transform="scale(0.666667 0.666667)" d="M382.197 608.984L293.068 608.087L292.775 607.502C291.922 605.133 291.77 601.924 291.415 599.418L289.808 587.062C289.492 584.443 288.671 581.248 289.592 578.737C290.075 577.423 291.221 575.833 292.6 575.381C294.198 574.858 297.051 575.336 298.748 575.446L310.805 576.101L341.747 576.584C347.572 576.653 380.903 575.954 382.39 576.762L382.197 608.984Z"/>
</svg>
